<?xml version="1.0" standalone="no"?>
<!DOCTYPE svg PUBLIC "-//W3C//DTD SVG 20010904//EN"
 "http://www.w3.org/TR/2001/REC-SVG-20010904/DTD/svg10.dtd">
<svg version="1.0" xmlns="http://www.w3.org/2000/svg"
 width="912.000000pt" height="912.000000pt" viewBox="0 0 912.000000 912.000000"
 preserveAspectRatio="xMidYMid meet">
<metadata>
Created by potrace 1.11, written by Peter Selinger 2001-2013
</metadata>
<g transform="translate(0.000000,912.000000) scale(0.100000,-0.100000)"
fill="#000000" stroke="none">
<path d="M5620 8331 c-8 -5 -44 -17 -80 -26 -36 -9 -75 -26 -88 -38 -12 -11
-29 -22 -38 -23 -9 -1 -23 -9 -32 -17 -10 -8 -42 -23 -72 -33 -30 -11 -57 -22
-60 -26 -11 -14 -106 -51 -135 -52 -29 -2 -53 -12 -125 -53 -19 -11 -48 -23
-64 -27 -17 -4 -42 -16 -58 -27 -22 -16 -32 -18 -48 -9 -16 8 -34 5 -87 -16
-38 -15 -80 -35 -94 -45 -22 -15 -129 -62 -136 -60 -13 4 -27 -3 -56 -28 -25
-23 -41 -29 -68 -27 -25 2 -43 -4 -66 -23 -18 -15 -47 -28 -65 -29 -18 -2 -46
-10 -63 -18 -16 -9 -63 -26 -103 -39 -41 -13 -94 -36 -119 -51 -25 -15 -67
-32 -92 -40 -25 -7 -75 -24 -111 -37 -98 -37 -110 -40 -110 -27 0 21 -78 180
-88 180 -12 0 -26 46 -24 75 6 78 3 118 -12 134 -9 10 -16 21 -16 25 0 4 -14
37 -30 73 -17 35 -30 72 -30 81 0 21 -36 82 -49 82 -5 0 -14 14 -21 30 -15 35
-12 35 -75 11 -27 -10 -69 -22 -92 -26 -23 -3 -52 -17 -65 -29 -21 -20 -146
-86 -164 -86 -4 0 -38 -16 -75 -35 -42 -22 -75 -33 -91 -30 -16 3 -39 -4 -62
-20 -20 -14 -43 -25 -51 -25 -8 0 -15 -4 -15 -9 0 -8 -25 -19 -65 -27 -11 -2
-32 -13 -47 -24 -29 -22 -53 -26 -63 -11 -3 6 -13 8 -23 6 -26 -5 -134 -56
-165 -77 -15 -11 -27 -16 -27 -12 0 3 -6 2 -12 -4 -7 -5 -38 -17 -69 -26 -33
-10 -65 -27 -78 -42 -18 -20 -28 -24 -51 -19 -30 6 -62 -7 -90 -37 -8 -10 -36
-19 -62 -22 -27 -2 -61 -14 -78 -26 -16 -12 -30 -19 -30 -16 0 9 -136 -41
-190 -71 -30 -17 -68 -34 -85 -37 -72 -16 -218 -79 -242 -105 -11 -12 -48 -25
-98 -36 -116 -23 -228 -55 -245 -70 -18 -15 -85 -37 -125 -41 -45 -5 -57 -8
-90 -26 -16 -9 -48 -25 -70 -37 -21 -12 -47 -21 -57 -21 -9 0 -43 -12 -75 -27
-32 -15 -60 -28 -63 -28 -3 -1 -12 -5 -21 -9 -8 -4 -35 -8 -60 -11 -24 -2 -44
-4 -44 -5 0 -1 -7 -3 -15 -5 -60 -12 -171 -51 -201 -70 -19 -12 -59 -33 -87
-45 -28 -12 -54 -30 -57 -41 -9 -26 13 -93 61 -184 23 -44 44 -92 47 -106 4
-14 18 -38 32 -55 14 -16 35 -49 47 -73 11 -24 36 -69 54 -99 18 -30 31 -59
28 -63 -3 -5 -2 -9 3 -9 4 0 9 -25 10 -55 3 -57 26 -114 69 -172 31 -41 60
-109 84 -195 10 -38 28 -81 39 -96 22 -32 81 -137 81 -146 0 -3 -7 -6 -15 -6
-8 0 -15 -2 -15 -5 0 -10 24 -55 30 -55 3 0 12 -16 19 -36 7 -19 30 -65 51
-102 21 -37 42 -83 45 -102 4 -19 8 -39 9 -45 4 -22 31 -82 48 -107 11 -15 21
-46 24 -69 3 -24 16 -68 30 -100 13 -32 24 -67 24 -77 0 -10 9 -28 20 -40 11
-12 20 -26 20 -32 0 -5 5 -10 10 -10 6 0 10 -7 10 -15 0 -8 3 -15 8 -15 4 0
18 -27 30 -60 13 -33 28 -60 33 -60 5 0 9 -5 9 -10 0 -6 7 -22 16 -35 13 -20
19 -22 41 -14 14 5 56 12 92 15 36 3 68 9 71 13 11 17 87 59 120 66 19 4 55
18 80 30 25 13 74 31 110 40 36 10 86 31 111 47 27 16 95 41 159 58 62 16 116
33 119 39 9 14 76 41 115 47 119 16 126 15 126 -8 0 -32 12 -47 40 -51 14 -2
30 -13 36 -25 9 -18 11 -129 5 -230 -1 -26 -31 -40 -95 -47 -22 -2 -64 -6 -91
-10 -128 -14 -134 -14 -150 1 -8 9 -16 21 -16 27 -1 7 -3 21 -4 33 -1 11 -5
36 -8 55 -10 50 2 60 73 65 80 5 134 20 151 40 12 14 17 110 6 120 -2 3 -15 5
-28 6 -57 2 -75 -3 -84 -24 -13 -29 -46 -44 -115 -52 -66 -7 -84 -10 -138 -27
l-42 -12 1 -94 c0 -52 -2 -97 -5 -101 -7 -6 -21 -9 -76 -16 -19 -2 -58 -7 -86
-11 l-51 -7 3 29 c3 15 6 49 8 75 l3 46 -43 -16 c-25 -9 -44 -23 -45 -32 0 -8
-2 -31 -4 -50 -8 -72 -6 -167 4 -193 6 -15 9 -27 6 -27 -2 0 1 -13 6 -29 9
-24 14 -28 42 -25 18 3 58 13 90 24 32 11 85 22 118 24 l61 3 -7 -76 c-3 -42
-8 -98 -10 -126 -2 -27 -7 -88 -10 -135 -3 -47 -7 -98 -9 -113 l-3 -29 101 7
c150 10 177 13 276 30 14 3 39 7 55 9 17 2 62 10 102 16 40 6 114 12 165 13
l93 2 -2 -25 c-4 -49 -3 -285 1 -312 7 -44 17 -68 29 -69 7 -1 48 -2 92 -2
l80 -2 3 -50 c5 -80 -20 -98 -110 -82 -24 4 -37 3 -40 -6 -10 -27 0 -220 18
-332 7 -42 7 -181 0 -202 -8 -24 -51 -42 -66 -27 -9 9 -14 93 -25 394 -3 74
-9 149 -15 165 -5 17 -11 44 -14 60 -2 17 -5 32 -5 35 -1 3 -58 7 -128 8 -201
5 -254 9 -265 20 -10 10 -13 137 -3 152 2 4 -6 5 -19 3 -17 -4 -26 -14 -30
-35 -11 -55 -7 -86 12 -91 16 -4 16 -5 0 -6 -10 0 -18 -7 -19 -13 -4 -62 -4
-140 1 -146 3 -4 23 -8 45 -8 121 -2 268 -15 287 -26 13 -7 25 -14 27 -15 4
-3 8 -33 16 -133 3 -41 8 -97 11 -125 7 -56 7 -69 0 -309 l-5 -168 192 6 c106
4 212 8 237 9 47 3 115 -11 187 -39 l43 -16 -7 -51 c-3 -29 -5 -79 -3 -112 3
-67 4 -295 2 -425 -1 -47 -2 -134 -1 -195 1 -145 -10 -562 -15 -601 -7 -45
-51 -149 -95 -224 -88 -147 -339 -329 -476 -345 -11 -2 -45 -6 -75 -9 -30 -4
-71 -9 -90 -11 -40 -6 -192 -16 -262 -19 -25 0 -50 -4 -54 -8 -4 -5 923 -8
2059 -8 1137 0 2067 2 2067 4 0 1 -29 18 -64 35 -75 39 -123 84 -130 126 -3
17 -8 43 -11 59 -7 37 -60 115 -122 184 -131 142 -142 165 -136 270 6 109 6
217 -1 367 -9 176 -10 258 -6 335 2 36 0 99 -5 140 -7 63 -10 213 -6 310 1 35
52 88 161 166 l48 35 116 -6 116 -5 -5 47 c-8 81 -7 79 -85 76 -88 -4 -112 7
-108 50 3 27 9 34 43 45 22 7 52 14 67 15 16 1 28 6 28 10 0 5 3 6 8 3 4 -2
30 0 57 5 45 8 69 24 60 39 -2 4 -7 20 -9 36 -3 16 -8 40 -11 54 -11 55 -14
76 -19 110 -3 19 -8 46 -10 60 -3 14 -7 52 -11 85 -3 33 -8 67 -11 76 -6 22
24 29 170 43 18 2 42 7 54 10 21 7 21 8 -11 40 -33 32 -70 97 -73 126 -1 8 -4
28 -8 44 -4 24 1 35 30 62 19 19 52 41 72 49 20 9 51 23 67 30 43 20 190 75
212 80 10 2 31 8 48 15 16 6 47 13 68 15 21 2 42 7 47 10 9 6 7 53 -4 120 -10
59 -23 161 -25 187 0 15 -1 31 -2 35 -3 19 1 66 6 61 3 -3 33 5 68 16 l62 22
0 40 c0 54 16 70 73 79 26 3 58 8 72 10 14 2 60 6 102 10 43 3 88 8 100 10 13
2 46 7 73 10 28 4 63 8 79 11 16 2 31 6 35 10 8 8 7 419 -1 464 -4 20 -9 47
-13 61 -5 20 -1 28 17 37 21 11 105 42 111 41 17 -3 57 17 58 30 1 9 3 40 5
70 3 37 0 57 -8 63 -9 5 -6 8 8 8 12 0 33 9 48 21 14 11 26 17 26 14 0 -4 15
4 33 18 18 13 75 36 127 51 52 14 140 42 195 62 55 19 174 58 265 85 91 27
181 57 200 66 19 9 41 16 48 16 6 0 12 4 12 7 0 7 133 54 155 55 15 1 127 35
150 45 27 13 69 28 75 27 3 -1 19 6 35 15 96 50 115 58 115 51 0 -4 4 -3 8 2
4 6 42 28 85 49 42 21 77 41 77 43 0 2 -10 25 -22 51 -12 26 -22 49 -23 52 -1
3 -9 22 -18 44 -9 21 -17 41 -17 43 0 5 -15 41 -46 108 -10 22 -19 42 -19 45
-1 3 -11 25 -22 50 -11 25 -34 88 -52 140 -18 52 -53 134 -77 183 -25 48 -43
87 -40 87 8 0 -23 69 -50 112 -14 22 -36 71 -49 110 -13 39 -34 81 -45 93 -17
18 -20 30 -15 54 4 21 1 38 -12 57 -10 16 -19 36 -19 46 -1 10 -2 29 -3 42 0
14 -17 42 -36 63 -19 21 -34 47 -34 58 2 31 -16 106 -34 145 -8 19 -31 69 -50
110 -19 41 -44 86 -56 99 -25 29 -23 19 -25 112 -1 62 -7 87 -33 140 -44 90
-63 138 -63 160 0 10 -12 31 -26 46 -14 15 -34 39 -43 52 l-18 24 -59 -21
c-32 -11 -73 -23 -90 -26 -17 -4 -40 -15 -50 -24 -24 -22 -150 -85 -177 -89
-12 -2 -28 -9 -36 -16 -25 -21 -93 -47 -131 -51 -43 -5 -70 -15 -70 -27 0 -5
-3 -8 -7 -7 -5 0 -34 -11 -66 -26 -32 -16 -63 -29 -70 -30 -7 -1 -24 -10 -40
-20 -21 -15 -30 -16 -42 -6 -18 15 -38 9 -160 -52 -55 -28 -121 -57 -147 -64
-27 -8 -57 -25 -69 -37 -14 -16 -32 -22 -63 -22 -31 -1 -50 -8 -70 -27 -20
-18 -43 -27 -78 -30 -28 -3 -53 -10 -57 -16 -3 -5 -48 -24 -100 -41 -51 -17
-107 -41 -123 -52 -16 -11 -45 -25 -66 -30 -32 -9 -76 -24 -157 -55 -11 -4
-22 -8 -26 -8 -3 -1 -34 -15 -70 -33 -35 -18 -82 -33 -103 -35 -38 -3 -39 -2
-53 42 -8 25 -20 59 -28 75 -8 17 -26 56 -39 88 -14 32 -40 76 -56 98 -28 35
-32 46 -34 116 -3 91 -4 97 -46 183 -18 36 -39 86 -46 111 -8 25 -25 56 -39
69 -14 13 -25 29 -25 36 0 21 -35 29 -60 15z m-4965 -2581 c-3 -5 -12 -10 -18
-10 -7 0 -6 4 3 10 19 12 23 12 15 0z m4792 -187 c20 -26 36 -64 40 -98 5 -39
21 -81 49 -126 13 -20 26 -56 29 -80 4 -23 17 -63 31 -88 13 -25 24 -56 24
-68 0 -12 15 -42 34 -66 19 -25 42 -66 50 -92 16 -45 26 -66 65 -130 18 -30
45 -39 68 -22 16 12 124 26 316 42 73 6 73 6 80 -50 6 -49 -6 -78 -33 -81 -14
-1 -106 -6 -205 -9 -99 -4 -183 -9 -186 -11 -9 -5 -19 22 -19 52 0 17 -8 27
-25 34 -14 5 -29 20 -34 32 -5 13 -18 34 -30 47 -20 22 -22 23 -39 8 -19 -17
-54 -16 -104 4 -29 12 -31 21 -30 99 5 262 1 305 -32 365 -22 38 -44 103 -63
183 -12 50 -19 15 -21 -104 -2 -70 -5 -131 -8 -136 -12 -19 -25 10 -30 68 -3
32 -8 75 -10 94 -3 19 -6 49 -7 67 -3 42 -9 46 -43 31 -52 -23 -65 -43 -52
-78 12 -36 -1 -276 -18 -328 -6 -20 -37 -10 -41 13 -7 42 -14 143 -17 235 -3
76 -6 96 -19 98 -8 2 -54 -16 -102 -38 -47 -23 -88 -40 -91 -38 -10 10 209
109 316 143 63 20 120 38 125 40 6 2 12 4 14 4 2 1 10 -7 18 -16z m-2462 -152
c2 -12 18 -46 35 -76 17 -30 30 -60 28 -67 -4 -21 12 -72 30 -91 9 -10 17 -24
19 -32 2 -8 5 -23 7 -32 3 -10 5 -25 5 -33 1 -9 14 -29 29 -47 16 -17 39 -59
52 -94 13 -35 32 -76 42 -91 10 -14 18 -31 18 -37 0 -26 60 -35 83 -12 6 6 34
11 62 11 32 0 65 8 90 21 22 12 51 27 65 35 14 7 36 15 50 18 14 2 34 8 44 12
14 5 17 4 12 -4 -4 -7 -14 -12 -21 -12 -18 0 -28 -36 -21 -74 3 -16 8 -70 12
-120 3 -50 8 -94 10 -98 2 -3 5 -36 5 -72 1 -74 -8 -89 -62 -102 -19 -4 -36
-8 -39 -9 -3 -1 -26 -5 -53 -9 -56 -10 -72 0 -75 46 -2 18 -4 48 -6 66 -3 41
4 45 78 48 32 1 63 7 68 12 6 6 10 34 10 63 1 57 -12 212 -17 217 -6 6 -42
-21 -55 -41 -7 -12 -14 -41 -16 -65 -1 -25 -9 -49 -16 -54 -18 -11 -69 -7 -93
9 -11 7 -22 13 -25 13 -8 0 -9 -490 -1 -491 3 0 14 -2 25 -4 10 -2 40 -6 66
-8 78 -8 84 -14 86 -99 1 -40 5 -113 9 -163 15 -162 13 -178 -15 -193 -33 -17
-81 -12 -192 21 -69 21 -98 61 -113 157 -8 47 -14 90 -20 130 -3 25 -8 63 -12
85 -10 65 -6 179 6 183 17 6 42 33 37 40 -2 4 -7 45 -11 92 -4 47 -9 94 -11
105 -12 62 -20 332 -10 342 9 10 -40 91 -94 156 -4 5 -23 11 -41 14 -52 8 -59
19 -59 87 l0 62 -35 -1 c-49 -2 -66 13 -71 63 -6 70 -13 95 -26 103 -17 11
-47 -8 -60 -37 -6 -13 -19 -24 -28 -24 -9 0 -20 -3 -24 -7 -3 -4 -14 -7 -24
-8 -85 -7 -113 -17 -123 -43 -5 -14 -9 -42 -7 -61 l3 -35 78 -2 c42 -2 82 -6
88 -10 7 -4 8 -38 4 -99 -8 -118 -13 -148 -28 -157 -23 -15 -274 -15 -289 0
-15 15 -13 63 3 73 8 5 33 9 57 9 23 0 42 3 43 8 1 4 2 65 3 136 1 137 -3 149
-47 129 -14 -7 -23 -21 -25 -38 -5 -59 -53 -77 -95 -34 -17 18 -47 16 -47 -3
0 -5 -4 -6 -10 -3 -6 3 -10 -4 -10 -17 0 -44 -13 -51 -96 -50 -43 0 -87 -4
-98 -10 -16 -8 -15 -4 6 16 19 18 40 27 75 29 48 4 80 17 118 49 11 9 40 24
65 33 25 10 59 23 75 30 17 8 37 15 45 17 8 2 17 5 20 8 4 5 68 25 135 43 49
14 93 32 110 47 25 21 67 37 120 46 22 4 47 10 55 15 18 9 29 0 35 -30z m1860
-67 c-66 -25 -124 -50 -130 -55 -7 -7 -4 -8 8 -3 26 10 64 -14 71 -45 17 -69
17 -98 2 -110 -9 -8 -16 -11 -16 -8 0 3 -19 -1 -42 -8 l-43 -13 3 -84 c3 -83
3 -84 -24 -97 -47 -21 -57 1 -58 136 -1 102 11 126 65 138 16 4 29 11 30 16 8
76 0 81 -78 43 -79 -38 -96 -42 -60 -14 14 11 30 20 37 20 6 0 28 9 48 19 61
32 103 49 192 80 132 46 129 35 -5 -15z m203 -66 c17 -15 15 -46 -9 -123 -11
-38 -23 -77 -25 -89 -2 -12 -7 -32 -9 -46 -11 -49 -27 -135 -30 -160 -2 -14
-4 -26 -5 -27 -3 -3 -7 -19 -9 -33 -1 -13 -108 -43 -122 -35 -6 5 -9 52 -8
137 2 119 4 130 23 140 12 6 21 10 21 8 0 -2 10 0 22 4 24 8 33 31 22 61 -13
37 -19 148 -8 161 12 14 119 16 137 2z m2077 -45 c-3 -16 -9 -62 -12 -103 -11
-137 -5 -181 26 -173 25 6 29 -2 36 -83 14 -162 14 -163 -8 -170 -25 -8 -103
-13 -277 -18 l-135 -4 0 130 0 130 33 13 c17 8 32 12 32 10 0 -2 28 7 63 19
34 13 64 23 67 24 43 4 80 17 81 28 1 8 2 23 3 33 0 11 4 22 8 26 4 4 3 17 -2
30 -5 13 -7 25 -5 27 2 2 6 16 9 32 4 22 2 27 -10 22 -9 -3 -12 -1 -9 4 3 6
13 10 22 10 8 0 26 9 40 20 35 27 44 25 38 -7z m-2605 -25 c-14 -5 -32 -11
-40 -12 -27 -4 -68 -25 -77 -38 -4 -7 -21 -19 -36 -26 -15 -7 -26 -15 -24 -20
6 -8 16 -92 23 -175 5 -69 0 -72 -119 -81 -108 -8 -111 -3 -116 163 -1 39 -3
43 -22 38 -12 -3 -18 -2 -13 2 12 11 146 70 170 74 11 2 26 7 34 10 8 3 32 8
53 10 22 3 44 14 55 27 17 21 67 37 117 38 17 1 16 -1 -5 -10z m2485 2 c3 -5
-1 -10 -10 -10 -9 0 -13 5 -10 10 3 6 8 10 10 10 2 0 7 -4 10 -10z m-40 -42
c-1 -24 -3 -46 -4 -50 -2 -10 -76 -33 -147 -44 -25 -4 -34 0 -48 21 -16 25
-16 25 11 36 15 6 49 14 75 18 27 5 59 19 78 34 17 15 33 27 35 27 2 0 2 -19
0 -42z m-2370 -17 c12 -39 -15 -119 -35 -106 -8 5 -6 32 4 80 3 11 5 26 5 33
1 19 19 14 26 -7z m-70 -13 c2 -13 10 -61 16 -108 6 -46 15 -92 20 -102 5 -10
7 -18 5 -18 -3 0 -1 -12 5 -27 10 -27 17 -82 23 -188 2 -27 4 -55 5 -62 1 -15
33 -25 91 -29 88 -6 85 -4 83 -75 -1 -35 -3 -147 -4 -247 l-3 -184 -25 -10
c-45 -19 -135 -9 -179 19 -31 19 -38 11 -24 -33 6 -20 10 -74 9 -120 -2 -93
-12 -111 -62 -114 -55 -4 -70 0 -82 19 -12 20 -16 34 -28 121 -4 25 -9 59 -11
75 -3 17 -6 49 -8 72 -4 41 -3 41 42 59 45 17 65 30 108 72 23 22 23 24 18
180 -9 272 -5 247 -43 245 -38 -1 -52 -16 -44 -47 3 -12 7 -87 10 -167 l4
-146 -38 -6 c-21 -4 -67 -13 -103 -22 -99 -23 -176 -29 -185 -15 -9 15 5 29
36 36 38 8 54 12 57 14 3 3 4 3 85 19 37 7 67 15 67 18 0 2 -11 14 -25 27 -31
29 -50 100 -69 261 -5 42 4 67 26 71 7 2 27 6 43 10 34 7 61 11 92 13 20 1 21
5 17 74 -2 39 -6 95 -9 122 -20 210 -19 215 41 215 27 0 35 -5 39 -22z m2127
-92 c8 -12 0 -362 -11 -504 -1 -10 -20 -12 -73 -10 l-73 3 2 -140 c0 -77 4
-174 7 -215 l6 -76 -33 -16 c-82 -43 -166 -70 -220 -71 -44 0 -44 1 -50 33 -2
14 -7 32 -10 40 -11 27 -30 134 -29 164 1 35 11 42 77 56 97 20 214 54 209 62
-3 4 -6 55 -8 113 -3 85 -1 105 10 105 8 0 16 -1 17 -2 2 -2 10 2 18 8 8 5 32
12 54 13 22 2 43 8 47 14 11 18 3 219 -9 242 -14 26 -57 49 -76 42 -12 -4 -12
-15 -1 -68 7 -34 14 -74 15 -88 3 -56 0 -61 -33 -61 -61 0 -63 5 -64 165 -2
169 -5 163 101 184 33 7 67 16 75 21 17 8 41 2 52 -14z m-2601 -12 c-21 -15
-22 -22 -18 -95 l4 -79 -46 -22 c-25 -12 -49 -22 -53 -23 -5 -2 -9 -4 -10 -5
-2 -1 -13 -4 -25 -5 -25 -3 -36 20 -35 69 1 33 20 48 67 54 35 4 45 16 37 46
-10 42 -22 47 -56 24 l-31 -21 21 22 c20 21 95 47 144 50 l24 1 -23 -16z
m-1738 -50 c12 -4 15 -30 16 -127 1 -67 4 -124 7 -127 7 -6 13 -7 69 -9 52 -1
52 0 60 -131 3 -47 8 -96 11 -110 18 -70 16 -97 -8 -123 -22 -26 -27 -27 -136
-28 -65 -1 -138 -8 -170 -16 -51 -14 -212 -21 -252 -12 -8 2 -20 11 -26 19
-16 21 -32 168 -25 226 0 6 26 12 58 13 31 1 59 4 62 6 5 2 35 7 131 21 157
21 198 33 185 54 -3 5 -8 67 -19 245 -2 37 10 105 18 105 3 0 11 -3 19 -6z
m1557 -8 c0 -2 -7 -7 -16 -10 -8 -3 -12 -2 -9 4 6 10 25 14 25 6z m-876 -223
c6 -202 8 -196 -63 -191 -38 3 -45 20 -43 108 7 238 35 331 84 282 14 -14 18
-46 22 -199z m816 199 c0 -5 -26 -16 -57 -26 -32 -10 -65 -21 -73 -24 -8 -3
-12 -2 -8 2 5 6 117 52 136 55 1 1 2 -3 2 -7z m-1172 -131 c9 -5 15 -35 17
-80 7 -140 17 -276 21 -282 6 -10 -75 -43 -84 -35 -4 4 -7 93 -7 197 0 158 3
191 15 199 18 12 22 12 38 1z m2885 -98 c3 -5 8 -42 12 -83 11 -117 14 -133
24 -143 8 -8 42 -5 101 10 34 9 112 5 123 -6 8 -8 12 -53 13 -124 1 -62 4
-162 7 -222 l7 -110 -49 -53 c-76 -82 -83 -75 -90 98 -1 21 -6 25 -31 26 -36
2 -39 -8 -26 -96 17 -115 16 -173 -1 -192 -47 -53 -137 -71 -213 -44 -36 13
-51 41 -66 119 -10 56 -11 191 -2 219 10 28 52 50 123 63 56 10 64 19 55 63
-5 20 -11 53 -14 72 -3 19 -8 46 -11 60 -3 14 -8 38 -11 54 -2 16 -7 34 -11
39 -10 17 -2 210 11 240 8 17 41 24 49 10z m-1461 -52 c13 -2 28 -40 34 -83 3
-24 7 -53 9 -66 2 -13 -4 -31 -15 -42 -15 -15 -31 -18 -112 -15 -128 4 -188
30 -188 81 0 24 29 48 95 79 93 43 135 54 177 46z m1636 -33 c2 -20 -4 -31
-22 -43 -37 -25 -57 -14 -46 24 12 45 20 52 43 49 15 -2 23 -11 25 -30z m-358
-59 c8 -12 15 -27 17 -33 1 -6 9 -38 18 -71 20 -82 19 -110 -7 -139 -28 -30
-53 -35 -94 -18 l-30 13 -1 141 0 140 41 -5 c27 -4 46 -13 56 -28z m938 -31
c6 -8 8 -18 4 -24 -9 -13 -102 -66 -102 -58 0 4 -6 2 -12 -4 -7 -6 -40 -20
-73 -32 -33 -12 -76 -28 -96 -36 -52 -19 -76 -9 -81 32 -2 19 -2 37 1 40 3 3
6 15 6 26 0 27 24 35 155 53 30 4 56 8 57 9 1 1 31 3 66 4 44 2 67 -1 75 -10z
m-3260 -100 c0 -7 3 -43 6 -79 l5 -65 -33 -12 c-70 -26 -103 -10 -101 48 2 57
16 87 48 103 39 19 73 21 75 5z m-237 -186 c4 -1 6 -28 6 -59 -2 -93 12 -214
30 -265 9 -26 15 -49 12 -52 -2 -2 -17 -7 -34 -10 -16 -3 -43 -8 -59 -11 -68
-14 -82 -10 -91 28 -4 17 -9 39 -12 47 -7 28 -7 265 0 292 4 14 15 28 25 30
15 4 108 3 123 0z m1120 -19 c1 -16 2 -49 4 -74 3 -58 -1 -64 -47 -77 -47 -13
-78 -5 -79 19 -1 11 -2 29 -3 42 -4 58 8 81 54 99 62 23 70 22 71 -9z m210
-80 c1 -5 3 -21 5 -38 2 -16 6 -84 9 -150 2 -66 7 -130 10 -142 3 -15 -2 -29
-17 -43 -24 -22 -67 -27 -69 -7 -13 141 -13 341 0 385 2 6 61 1 62 -5z m-1126
-76 c3 -12 5 -55 3 -96 -2 -57 -7 -76 -20 -85 -28 -17 -41 6 -39 71 1 32 3 67
5 78 3 11 5 28 5 38 1 26 39 22 46 -6z m991 -180 c6 -11 9 -72 7 -160 -2 -78
-1 -147 1 -154 4 -10 12 -10 38 1 68 28 102 1 117 -92 14 -88 19 -125 26 -197
7 -59 6 -61 -27 -90 -33 -31 -208 -158 -283 -206 -47 -30 -45 -31 -133 54 -55
52 -74 88 -76 148 -3 54 2 58 68 65 22 2 42 6 44 9 4 4 5 28 2 125 0 8 -1 40
-1 70 -3 341 -1 400 10 419 3 5 42 12 85 15 44 3 81 8 84 11 9 8 27 0 38 -18z
m-1109 -221 c3 -3 7 -101 9 -218 3 -210 8 -304 18 -356 3 -15 8 -56 12 -92 3
-36 8 -69 11 -74 5 -8 -117 -3 -172 8 -11 2 -41 6 -67 10 l-47 7 -10 52 c-14
70 -20 125 -26 232 -3 50 -7 117 -10 151 l-5 60 42 1 c98 1 92 -4 104 97 3 33
8 67 9 75 2 9 4 24 4 33 1 9 8 23 16 32 13 13 21 13 61 1 25 -7 48 -16 51 -19z
m3209 16 c10 -7 36 -71 32 -82 -1 -3 4 -15 10 -26 10 -20 8 -23 -21 -35 -35
-15 -126 -14 -140 0 -6 6 6 25 27 47 20 21 44 53 53 71 16 34 21 38 39 25z
m-1445 -119 c2 -57 6 -91 12 -105 3 -8 1 -21 -3 -28 -5 -8 -5 -21 0 -31 11
-20 -4 -41 -42 -57 -43 -18 -51 2 -46 113 4 73 9 99 23 115 27 30 55 26 56 -7z
m1317 -143 c6 -36 14 -76 17 -90 15 -72 14 -110 -6 -120 -33 -18 -125 -9 -127
13 -8 78 -7 167 2 187 6 14 28 43 50 64 45 47 49 43 64 -54z m-206 -157 c2
-10 4 -53 4 -96 l-1 -78 -60 -34 c-81 -44 -141 -61 -162 -43 -21 17 -12 110
14 137 25 26 175 130 189 131 7 0 14 -8 16 -17z m201 -168 c24 -10 21 -34 -5
-44 -13 -4 -59 -7 -102 -7 -67 1 -79 4 -82 19 -5 36 24 49 100 44 39 -3 79 -9
89 -12z"/>
</g>
</svg>
