<?xml version="1.0" encoding="UTF-8" standalone="no"?>
<svg
   xmlns:dc="http://purl.org/dc/elements/1.1/"
   xmlns:cc="http://creativecommons.org/ns#"
   xmlns:rdf="http://www.w3.org/1999/02/22-rdf-syntax-ns#"
   xmlns:svg="http://www.w3.org/2000/svg"
   xmlns="http://www.w3.org/2000/svg"
   version="1.1"
   id="svg4387"
   viewBox="0 0 113.67888 95.204366"
   height="26.868788mm"
   width="32.082706mm">
  <defs
     id="defs4389" />
  <metadata
     id="metadata4392">
    <rdf:RDF>
      <cc:Work
         rdf:about="">
        <dc:format>image/svg+xml</dc:format>
        <dc:type
           rdf:resource="http://purl.org/dc/dcmitype/StillImage" />
        <dc:title></dc:title>
      </cc:Work>
    </rdf:RDF>
  </metadata>
  <g
     transform="translate(-231.73199,-353.33145)"
     id="layer1">
    <g
       transform="matrix(0.77738219,0,0,0.77738219,231.73199,352.27669)"
       id="g4360">
      <path
         style="fill:#885c97"
         id="path4"
         d="m 124.21002,47.435757 c -0.22759,-0.182982 -0.38635,-0.462771 -0.57653,-0.69174 -0.87802,-1.176094 -1.52502,-2.522688 -1.95983,-3.934597 -0.31666,-0.912011 -0.7608,-1.783834 -1.38828,-2.510446 -0.67843,-0.948656 -1.06906,-2.097529 -1.15991,-3.267583 -0.38977,-1.447829 -1.43588,-2.552326 -2.15678,-3.823696 -0.83641,-1.357788 -1.54369,-2.793537 -2.31211,-4.191594 -0.23437,-0.513268 -0.45091,-1.193571 -0.0977,-1.701685 0.43901,-0.526234 1.16496,-0.576248 1.7229,-0.910158 0.93574,-0.467764 1.88166,-0.942535 2.9116,-1.142913 1.5972,-0.378448 3.23517,-0.610155 4.77893,-1.20227 1.37724,-0.438931 2.71037,-1.008173 4.03417,-1.590381 0.96288,-0.314098 2.01327,-0.249426 2.94052,-0.693512 0.68776,-0.311359 1.38408,-0.605 2.11774,-0.778237 1.49359,-0.392381 3.02624,-0.607497 4.55469,-0.779848 0.32521,8.86e-4 0.47377,0.322715 0.56976,0.591148 0.12819,0.303305 0.3116,0.59445 0.58501,0.773808 0.60718,0.841218 0.45768,2.044373 1.17943,2.819711 0.46701,0.680223 0.86783,1.435749 0.98583,2.26996 0.41785,1.133329 1.28903,2.06177 1.49959,3.281596 0.56463,1.803887 1.30341,3.5456 2.12278,5.241002 0.535,1.315023 0.98669,2.672166 1.6711,3.916235 -0.11294,0.480247 -0.68441,0.446824 -1.00877,0.693512 -2.0727,1.132443 -4.25242,2.050413 -6.46692,2.842584 -1.28724,0.334796 -2.61951,0.562235 -3.81256,1.191638 -1.07582,0.495872 -2.18478,0.929729 -3.3464,1.155316 -1.7747,0.486771 -3.49667,1.154188 -5.24929,1.714651 -0.71242,0.242178 -1.41465,0.531631 -2.13897,0.727499 l 0,0 z m 13.87043,-27.324568 c 0.0205,-0.04365 0.006,0.111868 0,0 l 0,0 z" />
      <path
         style="fill:#885c97"
         id="path6"
         d="M 8.9804919,43.970373 C 8.4566202,43.079544 8.0149657,42.132418 7.3993093,41.301751 7.0349715,40.600669 7.1173442,39.748095 6.7379164,39.051281 6.4169818,38.236318 6.0509328,37.427557 5.5006924,36.74822 5.0362473,36.105528 4.6456187,35.361197 4.6116273,34.542046 4.517276,33.808507 4.5403777,32.984766 4.0521308,32.386611 3.7311184,31.96274 3.4330521,31.513178 3.257417,31.002648 3.0067987,30.413353 2.7046099,29.819627 2.2085068,29.411139 1.7679412,28.890059 1.7857537,28.137191 1.4155821,27.57407 0.95448165,26.71449 0.35671566,25.898802 0.1799916,24.91173 0.07397272,24.582813 -0.12826431,24.177869 0.11480905,23.861355 0.52651698,23.315952 1.2432139,23.272301 1.8044995,22.98019 2.3105588,22.675032 2.7529134,22.215161 3.351535,22.109254 c 1.1132371,-0.314823 2.2120065,-0.719767 3.3667022,-0.842829 0.4247756,-0.05259 0.8560071,-0.09979 1.2475693,-0.291145 0.7420544,-0.322876 1.4349496,-0.815043 2.2534655,-0.909594 0.472145,-0.08207 0.939157,-0.252648 1.307773,-0.576088 0.59341,-0.423307 1.285605,-0.769378 2.023382,-0.730237 0.700518,-0.02698 1.436583,-0.187089 1.973366,-0.684411 0.708141,-0.502798 5.396074,-1.459426 6.249514,-1.470057 0.281109,0.110417 0.151911,0.475656 0.256452,0.699552 0.17828,0.408488 0.592554,0.621832 0.838817,0.97926 0.227672,0.278258 0.318523,0.651631 0.273564,1.010025 0.0023,0.355897 0.150356,0.696733 0.388918,0.948575 0.33618,0.540409 0.667226,1.091208 1.101414,1.554864 0.290366,0.415254 0.196014,0.960092 0.339525,1.424313 0.268197,0.647121 0.886498,1.055448 1.136183,1.716342 0.369316,0.793057 0.603677,1.643939 0.946703,2.449076 0.204726,0.537913 0.316734,1.109571 0.493458,1.655376 0.306389,0.587604 0.811671,1.064147 0.984039,1.724155 0.804125,1.934278 0.926479,2.954531 1.872326,4.812621 0.06534,0.179358 -0.119009,0.297265 -0.27092,0.288567 -0.324357,0.04268 -0.679283,0.05589 -0.937291,0.292997 -0.550474,0.39689 -3.991926,2.008373 -4.648185,2.100911 -0.412797,0.04816 -0.776901,0.272943 -1.076601,0.558691 -0.327857,0.336648 -0.816182,0.277453 -1.23559,0.342125 -0.390629,0.02255 -0.714131,0.271976 -1.088736,0.360165 -0.750455,0.216808 -1.542602,0.340192 -2.216907,0.771311 -0.440721,0.2814 -0.846517,0.642693 -1.359499,0.778077 -0.529706,0.178391 -1.093636,0.196754 -1.632909,0.324406 -0.526283,0.200298 -1.010407,0.540248 -1.579315,0.60492 -0.830339,0.240728 -1.569982,0.767848 -2.439524,0.873756 -0.825438,0.178391 -1.590438,0.570127 -2.3087687,1.016871 -0.1849691,0.08126 -0.3854171,0.127572 -0.5875764,0.128458 -0.014312,-0.01651 -0.028002,-0.0331 -0.042392,-0.04993 l 0,0 z M 21.986589,16.605778 c 0.02015,-0.02883 0.0054,0.0422 0,0 l 0,0 z" />
      <path
         style="fill:#e975a0"
         id="path8"
         d="m 130.95206,2.0001558 c -0.14009,0.00362 -0.30569,0.049933 -0.4814,0.1435185 -0.49167,0.2623923 -1.1659,0.4624484 -1.78747,0.5316305 -0.50862,0.055974 -0.61215,0.1118671 -0.92126,0.4949857 -0.27769,0.3434941 -0.3974,0.4178305 -0.59186,0.367897 -0.17913,-0.046309 -0.27426,-0.0033 -0.35998,0.1609952 -0.0646,0.1233035 -0.17408,0.2247007 -0.24377,0.2247007 -0.0696,0 -0.42797,0.1468205 -0.79728,0.3261784 -0.36854,0.1793578 -0.737,0.299923 -0.81938,0.2665803 -0.0824,-0.032296 -0.30996,0.086659 -0.50699,0.2641643 -0.19609,0.1783914 -0.45169,0.3233595 -0.56805,0.3233595 -0.11551,0 -0.37873,0.1183102 -0.58416,0.2615065 -0.30483,0.2135059 -0.46366,0.2517614 -0.85507,0.2090763 -0.38215,-0.042766 -0.55708,-0.00362 -0.84659,0.1898278 -0.75575,0.5044892 -2.14831,1.1655441 -2.45485,1.1655441 -0.20037,0 -0.44998,0.1162161 -0.67843,0.3173998 -0.41521,0.3654808 -0.62833,0.397696 -0.99345,0.1510085 -0.24968,-0.1684853 -0.29807,-0.1564046 -1.30093,0.3219098 -0.57225,0.2738288 -1.06734,0.4976436 -1.09954,0.4976436 -0.0323,0 -0.2556,0.1345787 -0.4951,0.299036 -0.57396,0.3932664 -1.50884,0.7746938 -1.90032,0.7746938 -0.31588,0 -1.09201,0.4589048 -1.09201,0.6460748 0,0.054927 -0.11885,0.1811301 -0.26493,0.2797881 -0.23008,0.154875 -0.32008,0.160915 -0.66995,0.04204 -0.36255,-0.123384 -0.43893,-0.114605 -0.7531,0.08489 -0.19197,0.122418 -0.46195,0.346232 -0.60033,0.497402 -0.20807,0.228325 -0.34559,0.27552 -0.79992,0.27552 -0.61224,0 -1.03336,0.132888 -1.34504,0.423951 -0.11457,0.106794 -0.34893,0.221319 -0.5213,0.253614 -0.97058,0.181935 -2.36143,0.721459 -2.93462,1.136631 -0.48311,0.350743 -0.76165,0.471388 -1.26351,0.543872 -0.35407,0.05146 -0.86861,0.213345 -1.14373,0.35928 -0.48653,0.25901 -0.71327,0.340272 -1.710146,0.607819 -0.264075,0.07176 -0.714131,0.312246 -1.000296,0.535174 -0.393118,0.305964 -0.659759,0.422985 -1.085157,0.477429 -1.247414,0.06475 0.402451,-0.215036 -0.877165,0.117988 l -0.677571,0.06193 c -0.735365,0.0683 -1.850236,0.609591 -2.144024,1.04071 -0.199592,0.292755 -1.112382,0.561349 -1.908029,0.561349 -0.802414,0 -0.956114,0.06564 -2.032793,0.852413 -0.805837,0.589376 -0.939936,0.65131 -1.417215,0.65131 -0.414353,0 -0.64358,0.0753 -1.075823,0.352594 -1.208289,0.775338 -1.726249,0.973945 -2.730745,1.046429 -0.533283,0.03858 -1.131049,0.151411 -1.366266,0.257318 -0.541762,0.24395 -1.78062,0.667901 -2.230675,0.762291 -0.216549,0.0455 -0.534061,0.259735 -0.818516,0.553618 -0.405096,0.416058 -0.55024,0.493133 -1.107247,0.584866 -0.63518,0.104135 -1.841754,0.685377 -1.919071,0.923367 -0.02201,0.06741 0.127409,0.312245 0.332058,0.544838 0.203714,0.232513 0.371024,0.513912 0.371024,0.625135 0,0.111062 0.18598,0.515765 0.412719,0.899608 1.024875,1.735672 1.558936,2.902102 1.565781,3.418108 0.0023,0.290098 0.112942,0.467522 0.577387,0.934481 0.322646,0.324568 0.573964,0.672491 0.573964,0.794023 0,0.36379 0.822794,2.077635 1.178653,2.455278 0.293788,0.312245 0.335402,0.431199 0.34637,0.980145 0.007,0.344542 0.05266,0.692626 0.101974,0.773003 0.05002,0.08126 0.09077,0.460918 0.09334,0.84452 0.0016,0.537993 0.05608,0.785325 0.236073,1.073731 0.128187,0.207305 0.332836,0.593967 0.454333,0.859661 0.12142,0.265856 0.406652,0.71268 0.632536,0.993354 0.248829,0.308702 0.437298,0.669753 0.47549,0.912897 0.03399,0.221077 0.219116,0.738855 0.410152,1.150403 0.22075,0.474127 0.348159,0.911367 0.348159,1.191155 0,0.704626 0.25723,1.399024 0.719186,1.938386 0.235217,0.275359 0.427965,0.605081 0.427965,0.732653 0,0.127008 0.163034,0.494986 0.362549,0.816896 0.199592,0.321507 0.362626,0.671524 0.365193,0.776385 0,0 -0.251396,-0.568517 0.07724,0.505214 0.304833,0.391736 0.723464,0.83848 0.742132,1.418352 -0.0039,0.74417 0.441577,1.921876 0.93488,2.470902 0.209782,0.233399 0.267497,0.422421 0.292932,0.953166 0.03314,0.691659 0.269209,1.35956 0.514616,1.456688 0.161323,0.06387 0.292932,0.444086 0.467867,1.355453 0.09334,0.485241 0.186758,0.671525 0.427109,0.85499 0.382928,0.291305 0.82365,1.049167 0.82365,1.4165 0,0.152217 0.04076,0.276164 0.09085,0.276164 0.05009,0 0.118853,0.18113 0.1537,0.402207 0.03477,0.223009 0.215693,0.59308 0.405018,0.827446 0.187614,0.233398 0.388062,0.571577 0.445778,0.751821 0.08743,0.27552 0.168945,0.335762 0.517104,0.38038 0.332836,0.04381 0.459389,0.0071 0.647936,-0.188136 0.205427,-0.212379 0.330269,-0.23944 1.046966,-0.224459 0.641091,0.01385 0.917067,-0.03246 1.304196,-0.217775 0.202159,-0.09624 0.391484,-0.206418 0.489958,-0.279788 0.02123,-0.02279 0.04504,-0.04454 0.07133,-0.06741 0.123131,-0.186284 0.815171,-0.494019 1.285605,-0.568355 0.25303,-0.0393 0.792225,-0.210607 1.199811,-0.379334 1.191325,-0.494019 1.830705,-0.728384 2.774925,-1.016066 0.48482,-0.147948 0.77013,-0.266822 0.99096,-0.425964 0.0365,-0.02795 0.073,-0.05509 0.1061,-0.08577 0,-6.45e-4 0.002,-6.45e-4 0.002,-0.0015 0.0314,-0.02972 0.0628,-0.0596 0.0943,-0.0927 0.0399,-0.04204 0.0722,-0.07007 0.10695,-0.104055 0.0247,-0.02279 0.0501,-0.04454 0.0756,-0.06556 0.20123,-0.184513 0.34808,-0.235332 0.64109,-0.23348 0.23771,0.0018 0.57311,-0.07426 0.74556,-0.169693 0.17143,-0.09536 0.53826,-0.172995 0.81423,-0.173881 0.2556,0 0.42548,-0.03334 0.44244,-0.08159 -0.0102,-0.0024 -0.0272,-0.006 -0.034,-0.0086 0.005,-0.0149 0.0136,-0.02811 0.0264,-0.04188 l 0,-9.67e-4 c 0.004,-0.0035 0.0127,-0.0077 0.017,-0.01136 0.0535,-0.06387 0.26151,-0.159142 0.52986,-0.236861 0.33198,-0.09528 0.73451,-0.270205 0.89583,-0.387468 0.2836,-0.206338 1.15905,-0.512382 1.58531,-0.553537 0.11457,-0.0112 0.24626,-0.08126 0.29208,-0.154713 0.0492,-0.0803 0.30911,-0.13474 0.64451,-0.13474 0.65548,0 1.09706,-0.145935 1.09706,-0.361857 0,-0.17219 0.71584,-0.591873 1.00963,-0.591873 0.94507,-0.0019 1.70244,-0.211814 1.70244,-0.47324 0,-0.122176 0.7286,-0.421213 0.88059,-0.361937 0.0696,0.02706 0.17828,-0.03584 0.24113,-0.140861 0.0637,-0.104699 0.27932,-0.221962 0.47806,-0.26046 0.19866,-0.03858 0.52558,-0.184512 0.72603,-0.324406 0.20037,-0.139894 0.52216,-0.287681 0.71491,-0.328836 0.19274,-0.04091 0.72517,-0.20964 1.18456,-0.376676 1.09962,-0.398018 2.34696,-0.787902 2.52104,-0.787902 0.0765,0 0.13923,-0.06298 0.13923,-0.139008 0,-0.07708 0.18684,-0.191439 0.41614,-0.25458 0.22923,-0.06371 0.52302,-0.229856 0.65206,-0.36975 0.2794,-0.301775 1.064,-0.591873 1.82566,-0.675149 0.30055,-0.03213 0.59271,-0.116055 0.64957,-0.186203 0.0705,-0.08722 -0.011,-0.371522 -0.25988,-0.906535 -0.19951,-0.428461 -0.3634,-0.913702 -0.3634,-1.079207 0,-0.185237 -0.15284,-0.497322 -0.40331,-0.822534 -0.2216,-0.288808 -0.529,-0.765995 -0.68185,-1.060764 -0.15284,-0.295574 -0.38215,-0.706478 -0.50862,-0.912816 -0.17066,-0.279869 -0.23351,-0.555148 -0.24284,-1.073731 -0.007,-0.384005 -0.039,-0.770264 -0.0713,-0.858695 -0.0323,-0.08908 -0.0773,-0.435388 -0.10019,-0.770184 -0.034,-0.503683 -0.10104,-0.679417 -0.39062,-1.017918 -0.37702,-0.442555 -1.00621,-1.749524 -1.11488,-2.317235 -0.0433,-0.226231 -0.26493,-0.552329 -0.62327,-0.917005 -0.46958,-0.476462 -0.55701,-0.626987 -0.55701,-0.954857 0,-0.439012 -0.68527,-1.921955 -1.40703,-3.042962 -0.24626,-0.383683 -0.49758,-0.880279 -0.557,-1.104174 -0.0586,-0.223815 -0.2514,-0.575282 -0.42797,-0.782506 -0.17579,-0.206419 -0.32016,-0.418878 -0.32016,-0.471469 0,-0.292755 1.57769,-1.070187 2.17973,-1.074697 0.27341,-0.0024 0.46701,-0.111948 0.85165,-0.481697 0.27341,-0.263279 0.6309,-0.508758 0.79308,-0.546369 0.26408,-0.05952 0.66318,-0.201184 2.59074,-0.920951 0.31245,-0.116136 0.8168,-0.195788 1.25752,-0.197318 0.78974,-0.0036 1.15143,-0.143518 2.5499,-0.982079 0.54347,-0.325131 0.77184,-0.402206 1.14886,-0.386581 0.42377,0.01836 0.55958,-0.04446 1.35608,-0.632947 1.02487,-0.756332 1.3756,-0.90138 2.17887,-0.902347 0.79308,-8.86e-4 1.35771,-0.173881 1.73224,-0.533402 0.17229,-0.165103 0.64443,-0.474771 1.04945,-0.688116 0.56977,-0.299923 0.86192,-0.388112 1.2839,-0.388112 1.10133,0 2.02011,-0.21423 2.40304,-0.560463 0.19531,-0.176619 0.4891,-0.369105 0.65214,-0.427575 0.40159,-0.144405 0.41093,-0.648894 0.0204,-1.068577 -0.23436,-0.251842 -0.28359,-0.417025 -0.32606,-1.096362 l -0.0501,-0.800305 -0.56043,-0.569886 c -0.49672,-0.504489 -0.56043,-0.620061 -0.56043,-1.009864 0,-0.823822 -0.22674,-1.704182 -0.63518,-2.471063 -0.22495,-0.420569 -0.40844,-0.82801 -0.40844,-0.90581 0,-0.31144 -0.77775,-1.778518 -1.18363,-2.232429 l -0.43302,-0.483549 0.0331,-1.248579 c 0.0306,-1.170939 0.017,-1.2723362 -0.21904,-1.6297633 -0.13845,-0.2099622 -0.28531,-0.5228519 -0.32778,-0.6961694 -0.0425,-0.1729148 -0.23693,-0.5866378 -0.43302,-0.9197425 -0.20021,-0.3384201 -0.43115,-0.9426152 -0.52543,-1.3719626 -0.15027,-0.6853773 -0.21647,-0.8077949 -0.61985,-1.1471815 -0.29037,-0.2449157 -0.46274,-0.4833883 -0.48312,-0.6687865 -0.0247,-0.2213986 -0.1894,-0.3365678 -0.42291,-0.3315744 l -7.7e-4,0 z m -21.8318,51.5788692 c -0.0195,-0.0069 -0.0323,0.0542 -0.0323,0.165102 0,0.148029 0.0229,0.208271 0.0518,0.134821 0.0297,-0.07426 0.0297,-0.194902 0,-0.269238 -0.007,-0.01836 -0.0136,-0.02795 -0.0204,-0.03068 l 7.8e-4,0 z" />
      <path
         style="fill:#f8f085"
         id="path10"
         d="m 90.607637,2.0001558 c -0.140943,0.00362 -0.306544,0.049933 -0.48148,0.1435185 -0.492447,0.2623923 -1.165818,0.4624484 -1.788242,0.5316305 -0.508626,0.055974 -0.612233,0.1118671 -0.921267,0.4949857 -0.277687,0.3434941 -0.39654,0.4178305 -0.591855,0.367897 -0.179213,-0.046309 -0.274264,-0.0033 -0.360059,0.1609952 -0.06371,0.1233035 -0.173224,0.2247007 -0.24284,0.2247007 -0.06962,0 -0.428821,0.1468205 -0.797359,0.3261784 -0.36846,0.1793578 -0.736998,0.299923 -0.819371,0.2665803 -0.08237,-0.032296 -0.309967,0.086659 -0.506915,0.2641643 -0.197025,0.1783914 -0.452622,0.3233595 -0.568052,0.3233595 -0.116365,0 -0.378728,0.1183102 -0.585088,0.2615065 -0.303978,0.2135059 -0.463589,0.2517614 -0.855074,0.2090763 -0.381216,-0.042766 -0.556151,-0.00362 -0.845739,0.1898278 -0.755667,0.5044892 -2.14908,1.1655441 -2.454769,1.1655441 -0.201304,0 -0.450055,0.1162161 -0.679361,0.3173998 -0.414349,0.3654808 -0.627476,0.397696 -0.992592,0.1510085 -0.250462,-0.1684853 -0.298922,-0.1564046 -1.300851,0.3219098 -0.573186,0.2738288 -1.0682,0.4976436 -1.10048,0.4976436 -0.03228,0 -0.254741,0.1345787 -0.495014,0.299036 -0.574042,0.3932664 -1.508922,0.7746938 -1.900484,0.7746938 -0.315723,0 -1.090991,0.4589048 -1.090991,0.6460748 0,0.054927 -0.119709,0.1811301 -0.265786,0.2797881 -0.230006,0.154875 -0.319379,0.160915 -0.669093,0.04204 -0.363405,-0.123384 -0.438933,-0.114605 -0.753178,0.08489 -0.192669,0.122418 -0.462889,0.346232 -0.600255,0.497402 -0.208226,0.228325 -0.346525,0.27552 -0.799925,0.27552 -0.612389,0 -1.033431,0.132888 -1.345188,0.423951 -0.115352,0.106794 -0.349714,0.221319 -0.521227,0.253614 -0.97136,0.181935 -2.361273,0.721459 -2.934537,1.136631 -0.483191,0.350743 -0.762511,0.471388 -1.26367,0.543872 -0.354071,0.05146 -0.868608,0.213345 -1.143495,0.35928 -0.486769,0.25901 -0.71413,0.340272 -1.711003,0.607819 -0.264075,0.07176 -0.714364,0.312246 -1.000373,0.535174 -0.392418,0.305964 -0.658904,0.422985 -1.084224,0.477429 -1.247569,0.06475 0.402296,-0.215036 -0.87802,0.117988 l -0.06052,1.050858 c -0.735131,0.06741 -2.356295,0.175734 -2.761235,0.05179 -0.198659,0.292755 -0.942503,0.835822 -1.737294,0.835822 -0.802337,0 -0.758311,0.160915 -1.834835,0.948575 -0.805836,0.589457 -1.308629,0.280675 -1.784899,0.280675 -0.414586,0 -0.401752,0.499495 -0.834773,0.776546 -1.208288,0.775579 -1.968311,0.549993 -2.972806,0.622477 -0.533206,0.03858 -1.13105,0.151411 -1.365411,0.257318 -0.542462,0.24395 -1.781553,0.667901 -2.231453,0.762291 -0.215693,0.0455 -0.533283,0.259735 -0.818438,0.553618 -0.404318,0.416058 -0.54954,0.493133 -1.107403,0.584866 -0.634246,0.104135 -1.841757,0.685377 -1.918918,0.923367 -0.02131,0.06741 0.128265,0.312245 0.331902,0.544838 0.20457,0.232513 0.37196,0.513912 0.37196,0.625135 0,0.111062 0.185203,0.515765 0.411708,0.899608 1.025809,1.735672 1.559948,2.902102 1.565937,3.418108 0.0031,0.290098 0.112864,0.467522 0.577309,0.934481 0.322724,0.324568 0.573965,0.672491 0.573965,0.794023 0,0.36379 0.822949,2.077635 1.178575,2.455278 0.293866,0.312245 0.336336,0.431199 0.346525,0.980145 0.007,0.344542 0.0525,0.692626 0.102752,0.773003 0.04916,0.08126 0.09,0.460918 0.09264,0.84452 0.0023,0.537993 0.05585,0.785325 0.23584,1.073731 0.128265,0.207305 0.333924,0.593967 0.455266,0.859661 0.12142,0.265856 0.405797,0.71268 0.632458,0.993354 0.248907,0.308702 0.436598,0.669753 0.47479,0.912897 0.03485,0.221077 0.219038,0.738855 0.411086,1.150403 0.219738,0.474127 0.347225,0.911367 0.347225,1.191155 0,0.704626 0.258086,1.399024 0.719186,1.938386 0.236073,0.275359 0.428043,0.605081 0.428043,0.732653 0,0.127008 0.163034,0.494986 0.362549,0.816896 0.199592,0.321507 0.363248,0.671524 0.365037,0.776385 0,0 -0.251318,-0.568517 0.07739,0.505214 0.305533,0.391736 0.723308,0.83848 0.742054,1.418352 -0.0039,0.74417 0.441499,1.921876 0.935582,2.470902 0.208927,0.233399 0.267575,0.422421 0.293088,0.953166 0.03236,0.691659 0.268431,1.35956 0.51446,1.456688 0.161557,0.06387 0.292155,0.444086 0.46709,1.355453 0.09334,0.485241 0.186836,0.671525 0.427265,0.85499 0.382694,0.291305 0.823649,1.049167 0.823649,1.4165 0,0.152217 0.0406,0.276164 0.09085,0.276164 0.04994,0 0.119475,0.18113 0.154556,0.402207 0.03477,0.223009 0.215538,0.59308 0.404007,0.827446 0.187692,0.233398 0.388918,0.571577 0.445933,0.751821 0.08821,0.27552 0.168868,0.335762 0.51796,0.38038 0.332758,0.04381 0.458456,0.0071 0.646925,-0.188136 0.206204,-0.212379 0.330424,-0.23944 1.047121,-0.224459 0.64187,0.01385 0.916912,-0.03246 1.304196,-0.217775 0.202004,-0.09624 0.392184,-0.206418 0.489725,-0.279788 0.02139,-0.02279 0.04504,-0.04454 0.07156,-0.06741 0.123054,-0.186284 0.815794,-0.494019 1.285606,-0.568355 0.253029,-0.0393 0.792924,-0.210607 1.199654,-0.379334 1.191488,-0.494019 1.830712,-0.728384 2.775004,-1.016066 0.484824,-0.147948 0.770212,-0.266822 0.991739,-0.425964 0.03555,-0.02795 0.07211,-0.05509 0.105396,-0.08577 0,-6.45e-4 0.0023,-6.45e-4 0.0023,-0.0015 0.03236,-0.02972 0.0637,-0.0596 0.09435,-0.0927 0.04006,-0.04204 0.07218,-0.07007 0.10703,-0.104055 0.02536,-0.02279 0.05103,-0.04454 0.07553,-0.06556 0.201382,-0.184513 0.349015,-0.235332 0.641947,-0.23348 0.237862,0.0018 0.572409,-0.07426 0.744777,-0.169693 0.172368,-0.09536 0.539117,-0.172995 0.815171,-0.173881 0.254741,0 0.425398,-0.03334 0.441421,-0.08159 -0.01019,-0.0024 -0.02715,-0.006 -0.03384,-0.0086 0.005,-0.0149 0.01346,-0.02811 0.02621,-0.04188 l 0,-9.67e-4 c 0.0041,-0.0035 0.0126,-0.0077 0.01781,-0.01136 0.05266,-0.06387 0.26073,-0.159142 0.528927,-0.236861 0.332136,-0.09528 0.735443,-0.270205 0.896066,-0.387468 0.283443,-0.206338 1.159051,-0.512382 1.585072,-0.553537 0.11473,-0.0112 0.246262,-0.08126 0.292232,-0.154713 0.05017,-0.0803 0.309889,-0.13474 0.645292,-0.13474 0.655637,0 1.097058,-0.145935 1.097058,-0.361857 0,-0.17219 0.715841,-0.591873 1.008696,-0.591873 0.945147,-0.0019 1.703458,-0.211814 1.703458,-0.47324 0,-0.122176 0.727665,-0.421213 0.879653,-0.361937 0.06962,0.02706 0.178358,-0.03584 0.241985,-0.140861 0.0637,-0.104699 0.278543,-0.221962 0.477279,-0.26046 0.199515,-0.03858 0.525583,-0.184512 0.725953,-0.324406 0.201226,-0.139894 0.522239,-0.287681 0.714986,-0.328836 0.192748,-0.04091 0.726031,-0.20964 1.184565,-0.376676 1.099544,-0.398018 2.346957,-0.787902 2.520959,-0.787902 0.07646,0 0.13931,-0.06298 0.13931,-0.139008 0,-0.07708 0.187614,-0.191439 0.41692,-0.25458 0.228372,-0.06371 0.522238,-0.229856 0.652136,-0.36975 0.278465,-0.301775 5.237395,-2.024158 5.999051,-2.107273 0.300633,-0.03246 0.59271,-0.116378 0.64957,-0.18709 0.06962,-0.08754 -0.01105,-0.371521 -0.260653,-0.90589 -0.198737,-0.428381 -0.362549,-0.914588 -0.362549,-1.078885 0,-0.185318 -0.152844,-0.49861 -0.403385,-0.823742 -0.22246,-0.287681 -0.529005,-0.765109 -0.68185,-1.060522 -0.1537,-0.294849 -0.382072,-0.705593 -0.508626,-0.912816 -0.171512,-0.278903 -0.233506,-0.55547 -0.24284,-1.072845 -0.007,-0.384005 -0.03905,-0.770587 -0.07133,-0.859662 -0.03228,-0.08843 -0.07732,-0.434421 -0.100185,-0.769539 -0.03485,-0.504328 -0.101897,-0.679337 -0.390629,-1.018482 -0.377794,-0.442556 -1.006207,-1.749685 -1.11487,-2.317155 -0.04333,-0.225748 -0.264931,-0.551765 -0.624135,-0.916521 -0.468723,-0.477187 -0.556152,-0.627551 -0.556152,-0.955421 0,-0.438126 -0.686128,-1.92107 -1.407025,-3.042077 -0.247041,-0.383843 -0.497581,-0.881487 -0.557008,-1.105382 -0.05943,-0.222929 -0.252174,-0.575201 -0.427964,-0.781539 -0.176647,-0.206499 -0.320079,-0.418878 -0.320079,-0.472194 0,-0.29203 1.577682,-1.070107 2.179648,-1.074617 0.273409,-0.0019 0.467012,-0.111062 0.851651,-0.480811 0.273409,-0.263278 0.630047,-0.509966 0.793081,-0.546691 0.264075,-0.06008 0.663182,-0.201828 2.590734,-0.920628 0.312456,-0.116378 -3.35659,1.236336 -2.915947,1.234806 0.789736,-0.0036 1.151429,-0.143518 2.549976,-0.982079 0.543395,-0.325131 0.771845,-0.402206 1.148862,-0.386581 0.422831,0.01836 0.558718,-0.04446 1.355999,-0.632947 1.024097,-0.756332 1.374745,-0.90138 2.178871,-0.902347 0.79308,-8.86e-4 1.357788,-0.173881 1.731382,-0.533402 0.172368,-0.165103 0.64537,-0.474771 1.050388,-0.688116 0.569764,-0.299923 0.860985,-0.388112 1.283894,-0.388112 1.100481,0 2.019181,-0.21423 2.402965,-0.560463 0.195314,-0.176619 0.488247,-0.369105 0.652137,-0.427575 0.400818,-0.144405 0.411008,-0.648894 0.02038,-1.068577 -0.235217,-0.251842 -0.283598,-0.417025 -0.326068,-1.096362 l -0.05009,-0.800305 -0.561285,-0.569886 c -0.496726,-0.504489 -0.56043,-0.620061 -0.56043,-1.009864 0,-0.823822 -0.226661,-1.704182 -0.635102,-2.471063 -0.224172,-0.420569 -0.407586,-0.82801 -0.407586,-0.90581 0,-0.31144 -0.778612,-1.778518 -1.184564,-2.232429 L 93.606683,10.01396 93.638963,8.765381 C 93.670439,7.594397 93.656827,7.4929998 93.420754,7.1355727 93.282378,6.9256105 93.134589,6.6127208 93.092197,6.4394033 93.050583,6.2664885 92.855268,5.8527655 92.659099,5.5196608 92.459584,5.1812407 92.227789,4.5770456 92.133516,4.1476982 91.983238,3.4623209 91.916966,3.3399033 91.514515,3.0005167 91.224071,2.7556009 91.051703,2.5171284 91.030468,2.3317301 91.005889,2.1103316 90.841999,1.9951623 90.607637,2.0001558 l 0,0 z M 68.774908,53.579025 c -0.01867,-0.0069 -0.03236,0.0542 -0.03236,0.165102 0,0.148029 0.02388,0.208271 0.05289,0.134821 0.02862,-0.07426 0.02862,-0.194902 0,-0.269238 -0.0079,-0.01836 -0.01455,-0.02795 -0.02054,-0.03068 l 0,0 z" />
      <path
         style="fill:#d86e51"
         id="path12"
         d="m 96.433464,15.612666 -0.678428,0.06201 c -0.735365,0.0683 -1.850235,0.608705 -2.144101,1.04063 -0.198659,0.292755 -1.111448,0.561107 -1.907095,0.561107 -0.802415,0 -0.95697,0.06475 -2.033649,0.852655 -0.805837,0.589457 -0.939158,0.650504 -1.41636,0.650504 -0.414352,0 -0.644436,0.07522 -1.076678,0.353159 -1.208289,0.77566 -1.726249,0.974186 -2.729967,1.046751 -0.534061,0.0385 -1.131827,0.150364 -1.366189,0.256271 -0.542618,0.244594 -1.780619,0.667901 -2.230675,0.763338 -0.216549,0.04534 -0.534061,0.259574 -0.819371,0.552651 -0.404163,0.417025 -0.549384,0.493133 -1.107247,0.584946 -0.634325,0.104941 -1.841754,0.686264 -1.919071,0.924173 -0.02124,0.06652 0.128265,0.311117 0.332057,0.543711 0.204649,0.233398 0.371883,0.514234 0.371883,0.626021 0,0.111061 0.185122,0.516006 0.411783,0.898963 1.025808,1.736639 1.55987,2.903069 1.565859,3.418753 0.0031,0.289372 0.113719,0.467844 0.578242,0.934803 0.321791,0.323359 0.573109,0.671524 0.573109,0.793942 0,0.362823 0.822871,2.076508 1.179431,2.455358 0.29301,0.311923 0.335402,0.430153 0.34567,0.980146 0.007,0.343655 0.05258,0.691659 0.102674,0.773003 0.05009,0.0803 0.09085,0.460515 0.09256,0.84452 0.0023,0.536946 0.05608,0.784278 0.236073,1.073731 0.129043,0.206338 0.333691,0.593564 0.455111,0.858614 0.12142,0.265936 0.405874,0.713646 0.632613,0.994079 0.248829,0.307816 0.437299,0.669994 0.474713,0.912172 0.03477,0.221157 0.219893,0.739499 0.41093,1.150564 0.219971,0.47469 0.347303,0.911286 0.347303,1.191074 0,0.704626 0.258163,1.398943 0.720042,1.939352 0.235217,0.275359 0.427964,0.605082 0.427964,0.731768 0,0.127733 0.163034,0.494905 0.361771,0.81762 0.199515,0.321668 0.363405,0.670639 0.365038,0.775338 -0.09933,0.144405 0.33968,0.09205 0.511193,0.07796 0.05009,0 0.4611,-0.24999 0.912867,-0.555148 0.452544,-0.306205 1.009552,-0.591148 1.238857,-0.635685 1.043543,-0.198526 1.73815,-0.438046 2.199173,-0.758184 0.320156,-0.222929 0.692973,-0.374179 1.041909,-0.42234 0.360838,-0.05058 0.725176,-0.202795 1.08438,-0.451012 0.429598,-0.298152 0.599477,-0.359521 0.820226,-0.297346 0.153701,0.04277 0.443211,0.03229 0.644514,-0.02279 0.672438,-0.18717 1.664255,-0.722989 1.835768,-0.992549 0.09342,-0.146821 0.247118,-0.267466 0.340536,-0.267466 0.09334,0 0.449978,-0.143519 0.791369,-0.319092 0.391407,-0.200136 0.708141,-0.295574 0.85593,-0.256996 0.152844,0.03938 0.445777,-0.05597 0.832129,-0.272057 0.47129,-0.262312 0.72346,-0.332138 1.19981,-0.332138 0.35493,0 0.64871,-0.05597 0.71327,-0.13474 0.0603,-0.07345 0.20123,-0.26062 0.31332,-0.414367 0.11714,-0.160915 0.35064,-0.308621 0.54681,-0.345347 1.36713,-0.258124 1.79424,-0.40583 2.22306,-0.766881 0.36846,-0.31136 0.53491,-0.37877 0.92718,-0.37877 0.33625,0 0.47805,-0.04365 0.47805,-0.148673 0,-0.243949 -0.30483,-0.917004 -0.51197,-1.130349 -0.10703,-0.109451 -0.25303,-0.386582 -0.32607,-0.614906 -0.14351,-0.453751 -0.60632,-1.351829 -1.04362,-2.02577 -0.15284,-0.236137 -0.37865,-0.709055 -0.50263,-1.052066 -0.12314,-0.341803 -0.32436,-0.823419 -0.44664,-1.070107 -0.12227,-0.246445 -0.33291,-0.764223 -0.46701,-1.149919 -0.13503,-0.385374 -0.36348,-0.80699 -0.50863,-0.938105 -0.3193,-0.286715 -0.42119,-0.546369 -0.51967,-1.319372 -0.0416,-0.324487 -0.1817,-0.856198 -0.31245,-1.181329 -0.49253,-1.225787 -0.78546,-2.049609 -0.78546,-2.206899 0,-0.264164 -0.41015,-1.03008 -0.82964,-1.55124 -0.567198,-0.704626 -0.663105,-0.942535 -0.643659,-1.605362 0.01703,-0.575282 -0.0031,-0.621671 -0.559497,-1.311398 -0.31759,-0.393588 -0.606322,-0.866587 -0.642802,-1.051019 -0.0357,-0.183788 -0.150278,-0.381508 -0.254741,-0.438931 -0.208927,-0.115572 -0.428821,-0.781057 -0.33797,-1.02412 0.147711,-0.396891 -0.09513,-0.960978 -0.652992,-1.517817 -0.515393,-0.514154 -0.56463,-0.603229 -0.56463,-1.037167 l 0,-0.475656 c 0,0.475656 0,0 -0.156267,0.03342 l 0,0 z" />
      <path
         style="fill:#7bb078"
         id="path14"
         d="m 58.58955,14.839744 -0.789424,0.06797 c -0.856863,0.0753 -2.155925,0.670639 -2.49755,1.146296 -0.232494,0.322876 -1.295717,0.619175 -2.221885,0.619175 -0.935035,0 -1.115026,0.07071 -2.369207,0.938991 -0.939079,0.64986 -1.095346,0.71719 -1.650798,0.71719 -0.483036,0 -0.74968,0.08311 -1.254028,0.389159 -1.407958,0.854104 -2.01078,1.072845 -3.180799,1.152255 -0.621568,0.04301 -1.317808,0.167035 -1.591295,0.283413 -0.631602,0.269238 -2.074407,0.736116 -2.599135,0.840332 -0.25124,0.04961 -0.621723,0.286634 -0.953625,0.609188 -0.471212,0.459147 -0.640236,0.543953 -1.289883,0.644464 -0.739488,0.115492 -2.145735,0.756412 -2.235731,1.018724 -0.02544,0.07345 0.148644,0.342689 0.387362,0.599927 0.237551,0.25611 0.432087,0.565617 0.432087,0.68892 0,0.122499 0.216549,0.568356 0.480624,0.990777 1.193899,1.913097 1.816322,3.198481 1.823789,3.765871 0.0039,0.320138 0.131766,0.515925 0.672672,1.030724 0.376239,0.356863 0.668938,0.739901 0.668938,0.874641 0,0.400434 0.958681,2.288161 1.373267,2.705348 0.342092,0.343574 0.390629,0.47477 0.40323,1.079851 0.0078,0.379334 0.06106,0.762291 0.119708,0.851366 0.05787,0.08932 0.105241,0.508194 0.107886,0.931501 0.0023,0.591793 0.06534,0.863769 0.275198,1.183021 0.149344,0.227117 0.387984,0.653162 0.529783,0.945837 0.141022,0.292997 0.472924,0.786211 0.736999,1.094832 0.289587,0.340272 0.508781,0.738049 0.552807,1.005515 0.04076,0.243949 0.255674,0.815043 0.478913,1.267908 0.25653,0.522852 0.405018,1.003824 0.405018,1.312525 0,0.776305 0.299778,1.541415 0.838195,2.135865 0.274031,0.303547 0.498436,0.667256 0.498436,0.80715 0,0.139895 0.190181,0.545564 0.421898,0.899689 0.232573,0.35493 0.422753,0.739821 0.425398,0.855312 -0.116286,0.159143 0.395607,0.101317 0.595121,0.08569 0.05873,0 0.536786,-0.275521 1.06408,-0.612169 0.526595,-0.336729 1.176087,-0.65139 1.442806,-0.699471 1.2149,-0.219385 2.025015,-0.48355 2.561799,-0.835822 0.372738,-0.244916 0.80747,-0.411952 1.2142,-0.465187 0.420264,-0.05597 0.844729,-0.222929 1.263437,-0.497644 0.500148,-0.327869 0.697951,-0.395279 0.955337,-0.326983 0.179057,0.0472 0.516326,0.03576 0.750532,-0.02529 0.783669,-0.205452 1.93852,-0.7966 2.138113,-1.09306 0.109674,-0.162767 0.287876,-0.294527 0.397395,-0.295413 0.109519,0 0.523872,-0.158257 0.922123,-0.350743 0.455112,-0.221237 0.824505,-0.326178 0.996873,-0.284057 0.178202,0.04357 0.518972,-0.06145 0.969727,-0.299037 0.548451,-0.289453 0.842317,-0.366447 1.397769,-0.366447 0.412564,0 0.755589,-0.06113 0.830339,-0.147787 0.07047,-0.08126 0.234361,-0.287601 0.365193,-0.457294 0.135888,-0.177506 0.408441,-0.339387 0.636658,-0.3803 1.592928,-0.284218 2.090742,-0.446744 2.589801,-0.845728 0.429753,-0.342608 0.623512,-0.416945 1.080257,-0.416945 0.392262,0 0.557085,-0.04808 0.557085,-0.162525 0,-0.270205 -0.355082,-1.010912 -0.596288,-1.246082 -0.124687,-0.121532 -0.295422,-0.425723 -0.379584,-0.677565 -0.168012,-0.500382 -0.707285,-1.489951 -1.215678,-2.23243 -0.17859,-0.26054 -0.44181,-0.7817 -0.586098,-1.158617 -0.143433,-0.376676 -0.377794,-0.908307 -0.519516,-1.180283 -0.14281,-0.271976 -0.388062,-0.841218 -0.545184,-1.266055 -0.156267,-0.42516 -0.422831,-0.8893 -0.591855,-1.033462 -0.37196,-0.316756 -0.490891,-0.602585 -0.605466,-1.454353 -0.04846,-0.357347 -0.211494,-0.943179 -0.363405,-1.300929 -0.574742,-1.351667 -0.916289,-2.258523 -0.916289,-2.432404 0,-0.290339 -0.477124,-1.135182 -0.965371,-1.708692 -0.66147,-0.777271 -0.772701,-1.038858 -0.75061,-1.769578 0.0196,-0.633994 -0.0034,-0.683928 -0.652137,-1.445413 -0.369316,-0.433777 -0.706507,-0.954052 -0.748199,-1.156766 -0.04154,-0.203116 -0.174702,-0.420569 -0.297055,-0.484435 -0.243696,-0.126847 -0.499448,-0.8595 -0.393896,-1.127933 0.172368,-0.437401 -0.109675,-1.058992 -0.7608,-1.671805 -0.600488,-0.566584 -0.657348,-0.665485 -0.657348,-1.14388 l 0,-0.523576 c 0,0.523576 0,0 -0.182714,0.03672 l 0,0 z" />
      <path
         style="fill:#6db7db"
         id="path16"
         d="m 53.920364,3.09684 c -0.05608,0.00604 -0.130054,0.030363 -0.233428,0.064672 -0.190181,0.062014 -0.478057,0.1792773 -0.640469,0.2615065 -0.163035,0.082068 -0.382695,0.1485923 -0.489725,0.1485923 -0.106252,0 -0.218183,0.040913 -0.248907,0.091733 -0.03065,0.049933 -0.372739,0.1224981 -0.762512,0.1591428 -0.665593,0.063786 -0.727586,0.093666 -1.05451,0.4991738 -0.226661,0.2797885 -0.433876,0.4311192 -0.594499,0.4311192 -0.134955,0 -0.274109,0.048081 -0.310045,0.1067932 -0.103452,0.1738813 -1.623266,0.8595002 -1.90352,0.8595002 -0.141021,0 -0.396696,0.1207263 -0.567275,0.2684327 -0.169879,0.1477065 -0.390706,0.2683522 -0.490036,0.2683522 -0.09941,0 -0.342091,0.123384 -0.539972,0.2729429 -0.312612,0.2376672 -0.426254,0.263842 -0.887354,0.2054521 -0.468568,-0.060403 -0.564786,-0.036725 -0.850796,0.2114924 -0.17758,0.1531025 -0.51796,0.3498566 -0.756678,0.4371596 -0.238484,0.086739 -0.552807,0.2536138 -0.698651,0.3724877 -0.145999,0.118149 -0.498436,0.2458821 -0.782968,0.2851846 -0.37025,0.050578 -0.636969,0.1729953 -0.937291,0.4317624 -0.231095,0.1985259 -0.456123,0.360407 -0.500148,0.360407 -0.04418,0 -0.19967,-0.096243 -0.345748,-0.2142308 -0.145999,-0.1182296 -0.300555,-0.215035 -0.343025,-0.215035 -0.11473,0 -1.979434,0.9188555 -3.383892,1.6672932 -0.422753,0.225667 -0.835317,0.363709 -1.095347,0.36822 -0.470279,0.007 -0.831194,0.218499 -1.247258,0.729995 -0.306545,0.376031 -0.612078,0.437079 -0.934024,0.187089 -0.176491,-0.138122 -0.244551,-0.129344 -0.610445,0.08215 -0.226738,0.131116 -0.504503,0.371763 -0.616434,0.535174 -0.184346,0.26505 -0.267575,0.295574 -0.816959,0.295574 -0.671661,0 -1.08858,0.125156 -1.407881,0.424193 -0.114575,0.106471 -0.349793,0.221077 -0.521383,0.254419 -0.291221,0.05509 -1.063922,0.304192 -2.10591,0.679418 -0.239262,0.08634 -0.652136,0.327869 -0.916834,0.535899 -0.361926,0.284218 -0.636969,0.40132 -1.102269,0.46865 -0.341314,0.04993 -0.866975,0.209076 -1.168386,0.353239 -0.302189,0.144404 -0.759944,0.322715 -1.01803,0.397051 -0.975794,0.278098 -1.546413,0.563041 -1.923352,0.960092 l -0.388917,0.410099 0.321712,0.376756 c 0.176724,0.206338 0.32109,0.460919 0.32109,0.564974 0,0.103974 0.203715,0.436273 0.452622,0.737968 0.746488,0.904924 0.822794,1.066563 0.747111,1.587724 -0.07452,0.515925 0.04434,0.938347 0.355859,1.259129 0.405796,0.417186 0.946936,1.324687 1.052955,1.764504 0.122976,0.511496 0.424542,1.362298 0.784446,2.218255 0.136821,0.324326 0.307401,0.952199 0.379584,1.394755 0.10633,0.659202 0.185202,0.856923 0.435587,1.092093 0.184347,0.173076 0.441732,0.643578 0.646303,1.182216 0.70643,1.853579 1.058866,2.641481 1.626841,3.631936 0.32288,0.561429 0.64537,1.213705 0.717553,1.449842 0.07218,0.236137 0.223239,0.519309 0.335402,0.63029 0.245407,0.242177 0.626702,1.121892 0.545185,1.258485 -0.03236,0.05332 -0.26322,0.09777 -0.512749,0.09777 -0.362004,0 -0.537639,0.07256 -0.874753,0.362017 -0.397396,0.341964 -0.610367,0.422341 -2.177237,0.821003 -0.306545,0.07796 -0.524805,0.225587 -0.716464,0.484436 -0.26003,0.350742 -0.311756,0.372487 -0.892565,0.372487 -0.477202,0 -0.755589,0.07265 -1.236213,0.32191 -0.341547,0.177425 -0.780402,0.322474 -0.977349,0.322474 -0.196248,0 -0.561208,0.119679 -0.811827,0.266822 -0.249529,0.146901 -0.532427,0.267466 -0.627634,0.268433 -0.09583,8.86e-4 -0.259719,0.122417 -0.365038,0.270204 -0.296433,0.416059 -1.744139,1.02565 -2.381652,1.003663 -0.433877,-0.01474 -0.600411,0.03938 -0.99104,0.322715 -0.309111,0.223896 -0.678427,0.374904 -1.081034,0.442395 -0.378573,0.0637 -0.746255,0.20819 -0.966227,0.381105 -0.355004,0.278259 -1.854436,0.795795 -2.318103,0.800224 -0.134176,7.25e-4 -0.627557,0.263118 -1.095347,0.582289 -0.521227,0.355011 -1.092702,0.644384 -1.4766413,0.748519 -0.3438808,0.09262 -0.7429878,0.200942 -0.8864983,0.240406 -0.1435105,0.03938 -0.3430251,0.14521 -0.4432103,0.234285 -0.1705791,0.152297 -0.1612451,0.189022 0.1665345,0.602342 0.1908028,0.241372 0.3819168,0.584303 0.4227532,0.761808 0.040603,0.177505 0.2360728,0.575201 0.4338762,0.883903 0.1970255,0.309668 0.3582707,0.592678 0.3582707,0.631256 0,0.03761 0.1887023,0.357749 0.4178533,0.711794 0.299777,0.462448 0.416919,0.755445 0.416919,1.04224 0,0.796681 0.587499,2.353961 0.990106,2.625857 0.217327,0.145935 0.262363,0.262956 0.266486,0.684572 0.007,0.771956 0.155411,1.405225 0.389773,1.666651 0.213204,0.237748 0.377094,0.738613 0.496959,1.517897 0.04644,0.305078 0.177346,0.529778 0.468567,0.806023 0.444066,0.419683 1.143884,1.679779 1.143884,2.059998 0,0.132001 0.187536,0.469697 0.416919,0.750371 0.229151,0.279789 0.417542,0.600732 0.417542,0.713566 0,0.111947 0.03158,0.235976 0.06985,0.276164 0.123053,0.126686 0.766634,0.07619 1.068122,-0.08481 0.193448,-0.103169 0.557008,-0.148593 1.06999,-0.133854 0.6036,0.01683 0.833839,-0.02078 1.03172,-0.169452 0.897466,-0.672411 1.522456,-1.044173 1.757673,-1.044898 0.364027,-0.0026 1.400103,-0.341964 1.622641,-0.53155 0.217405,-0.186284 1.138595,-0.547497 1.569126,-0.615632 0.828705,-0.131115 1.903673,-0.585993 2.244987,-0.94793 0.288032,-0.305964 0.428042,-0.373293 0.777135,-0.373293 0.234361,0 0.524727,-0.07071 0.645136,-0.158338 0.120642,-0.08666 0.565563,-0.211573 0.988472,-0.277131 0.422987,-0.06644 0.904233,-0.187975 1.071545,-0.271976 0.166613,-0.08303 0.354149,-0.153747 0.416998,-0.155519 0.06277,-0.0027 0.276675,-0.147706 0.475334,-0.322876 0.224406,-0.196674 0.481558,-0.31893 0.678506,-0.320621 0.174157,-0.0019 0.407585,-0.07434 0.518893,-0.160996 0.111231,-0.08658 0.41692,-0.158257 0.67835,-0.158257 0.261508,-8.85e-4 0.726109,-0.03246 1.032498,-0.07007 0.450288,-0.05597 0.57832,-0.117988 0.670027,-0.324326 0.223472,-0.503604 1.447083,-1.008254 1.874815,-0.772922 0.152222,0.08392 0.299855,0.03487 0.676949,-0.221077 0.264775,-0.18113 0.548452,-0.328917 0.630824,-0.328917 0.08152,0 0.280254,-0.145048 0.440566,-0.322554 0.161401,-0.177505 0.393273,-0.321829 0.515471,-0.321829 0.122353,0 0.454333,-0.120726 0.737154,-0.268433 0.282743,-0.147706 0.590143,-0.268352 0.682783,-0.268352 0.09233,0 0.509249,-0.169774 0.927102,-0.376112 0.417775,-0.206338 0.920567,-0.376112 1.118293,-0.376112 0.197881,0 0.40424,-0.04357 0.458533,-0.09681 0.136744,-0.133049 1.03172,-0.432891 1.461396,-0.489751 0.420186,-0.05509 0.734587,-0.211573 1.089513,-0.540409 0.387051,-0.358313 1.575116,-0.805137 2.143091,-0.805137 0.492602,0 1.100325,-0.277292 1.377234,-0.627793 0.249529,-0.315709 0.125698,-0.694478 -0.663104,-2.025205 -0.436443,-0.736197 -0.834695,-1.491723 -0.884787,-1.677926 -0.05025,-0.18709 -0.278465,-0.573672 -0.507849,-0.858615 -0.451611,-0.562235 -0.629268,-1.055449 -0.630124,-1.75492 0,-0.284943 -0.133243,-0.745861 -0.365893,-1.262512 -0.20037,-0.447629 -0.365116,-0.952199 -0.365116,-1.121812 0,-0.20819 -0.168012,-0.524704 -0.521227,-0.97926 -0.286243,-0.369266 -0.52146,-0.732975 -0.52146,-0.807231 0,-0.07426 -0.174157,-0.394233 -0.387206,-0.710747 -0.349715,-0.520355 -0.388918,-0.648893 -0.40673,-1.340552 -0.01019,-0.421536 -0.07133,-0.864736 -0.134099,-0.986267 -0.06363,-0.121532 -0.114808,-0.46414 -0.114808,-0.761486 0,-0.445294 -0.05437,-0.603551 -0.308256,-0.900735 -0.376861,-0.442314 -1.152051,-2.064267 -1.152051,-2.410499 0,-0.163653 -0.197181,-0.449482 -0.55623,-0.810533 -0.47129,-0.474207 -0.567119,-0.636571 -0.624134,-1.066885 -0.06868,-0.515926 -0.738866,-2.020615 -1.161619,-2.606609 -0.417853,-0.580436 -0.787946,-1.30278 -0.787946,-1.539562 0,-0.127813 -0.09085,-0.325534 -0.202238,-0.439817 -0.397395,-0.409213 -0.561285,-0.749485 -0.436209,-0.904118 0.218182,-0.270205 1.419626,-0.821084 1.942642,-0.890266 0.421275,-0.05597 0.614723,-0.157371 1.007918,-0.532436 0.26742,-0.25458 0.619157,-0.493214 0.782191,-0.530825 0.500848,-0.114605 1.62163,-0.493133 2.240709,-0.756331 0.366126,-0.156485 0.917922,-0.278017 1.46054,-0.320138 0.941647,-0.07498 1.530079,-0.293641 2.627137,-0.979904 0.472223,-0.294769 0.740421,-0.393508 1.038487,-0.381428 0.530797,0.02191 0.918858,0.341159 1.645512,-0.225425 0.879653,-0.685619 0.993606,-1.21725 1.924207,-1.281036 1.06649,-0.07434 1.575971,-0.235251 1.917207,-0.606852 0.395063,-0.429348 1.958199,0.07707 2.396354,0.07434 0.205504,-8.86e-4 0.323501,-1.119235 0.891476,-1.202269 0.848462,-0.12419 1.079324,-0.198526 1.293462,-0.419683 L 58.640654,14.754938 58.39937,14.07552 C 58.049655,13.09175 57.52485,12.041778 57.229506,11.73219 56.658887,11.134035 56.617195,10.988987 56.746238,10.047902 56.882981,9.0547891 56.815854,8.5144605 56.52121,8.2398275 56.407335,8.1341618 56.262113,7.8498631 56.199264,7.6084911 56.136571,7.3663137 55.930211,6.9029793 55.740031,6.5784117 55.550706,6.2531192 55.363948,5.7976776 55.325678,5.5659701 55.200913,4.8219612 54.95784,4.3444522 54.586813,4.1197515 54.36793,3.9858976 54.21073,3.7909959 54.170827,3.6037454 54.095377,3.2480901 54.069086,3.1169745 53.970301,3.0986118 c -0.01517,-0.00266 -0.03127,-0.00362 -0.04994,-0.00177 l 0,0 z m 4.897714,11.710447 c -26.105614,8.220179 -5.01929,1.763619 0,0 l 0,0 z" />
      <path
         style="fill:#760e10"
         id="path18"
         d="m 96.694972,123.86781 0.02396,0.39874 c 0,0 -64.779089,0.12588 -66.407641,0.20135 0.02427,-0.65437 0,-0.25169 0,-0.88085 2.404832,-0.0175 7.738911,-0.48105 8.699304,-0.82793 2.051539,-0.74256 5.138998,-3.02186 6.293694,-4.64558 0.628335,-0.88399 1.514833,-2.72105 1.818111,-3.76942 0.201926,-0.69866 0.246963,-1.41392 0.258863,-4.09301 0.007,-1.78569 0.06627,-4.24684 0.130599,-5.4703 0.106252,-1.9925 0.09443,-2.24982 -0.112786,-2.48564 -0.193681,-0.22059 -0.204571,-0.32795 -0.06806,-0.67063 0.248052,-0.62103 0.33478,-6.11895 0.111386,-7.07727 -0.151133,-0.64986 -0.145222,-0.897111 0.04084,-1.699752 0.128887,-0.555469 0.171512,-1.029435 0.103529,-1.16055 -0.06549,-0.12572 -0.703084,-0.388918 -1.49282,-0.615551 -1.143884,-0.328756 -1.535913,-0.381025 -2.307058,-0.308702 -0.511193,0.04816 -2.232308,0.121532 -3.826169,0.163733 l -2.897201,0.07611 0.03905,-2.727174 c 0.02116,-1.500501 0.07895,-2.949538 0.128343,-3.221434 0.0483,-0.271735 -0.007,-1.188095 -0.123209,-2.036239 -0.11722,-0.848145 -0.212194,-1.995326 -0.212194,-2.54878 0,-0.587603 -0.07218,-1.104576 -0.171512,-1.240766 -0.265864,-0.361131 -1.211944,-0.523093 -3.632566,-0.620785 l -2.228108,-0.09028 0.01688,-1.354406 c 0.0094,-0.744975 0.05616,-1.799538 0.102674,-2.342283 0.0823,-0.94342 0.10283,-0.990696 0.4569,-1.032817 l 0.371105,-0.04357 -0.07055,1.173195 c -0.03905,0.645511 -0.01369,1.259129 0.05701,1.364311 0.09855,0.147546 0.852351,0.208916 3.297786,0.268191 l 3.170688,0.07716 0,0.638101 c 0,0.350823 0.08416,0.737969 0.186991,0.861272 0.141722,0.167841 0.222383,1.254941 0.330191,4.457527 0.07911,2.328752 0.186914,4.345662 0.239418,4.481449 0.14001,0.363709 0.822871,0.321588 1.08609,-0.06644 0.290366,-0.426689 0.281888,-2.474767 -0.01602,-4.132317 -0.125698,-0.699552 -0.244551,-2.081016 -0.263297,-3.071067 -0.03913,-2.009098 -0.09264,-1.919862 0.977272,-1.642087 1.16504,0.301937 1.629486,-0.15278 1.546257,-1.512662 l -0.04332,-0.691418 -3.001742,0 -0.186681,-0.634799 c -0.220905,-0.749325 -0.278387,-3.286751 -0.11123,-4.835494 l 0.117998,-1.093866 -1.081657,0.0026 c -1.419938,0.0038 -3.358535,0.215359 -5.057482,0.553698 -1.942098,0.38626 -3.473654,0.56747 -5.186369,0.611847 l -1.48512,0.04051 0.07716,-0.49861 c 0.0637,-0.409213 0.368382,-4.229205 0.524727,-6.568348 l 0.03741,-0.563926 -0.890854,0.01482 c -0.572098,0.01055 -1.239636,0.143519 -1.864548,0.372488 -1.300851,0.477509 -2.054106,0.604357 -2.143246,0.363065 -0.03734,-0.102525 -0.174079,-0.757217 -0.304911,-1.456689 -0.210405,-1.131557 -0.216549,-1.415855 -0.05266,-2.607574 l 0.184347,-1.336768 0.66326,-0.253614 0.663882,-0.252808 -0.196948,2.439573 0.462812,-0.06813 c 0.254741,-0.03761 1.034209,-0.152217 1.731382,-0.255386 l 1.267715,-0.186284 0,-3.16538 0.555452,-0.228969 c 0.305534,-0.124995 1.15384,-0.292031 1.885005,-0.36975 1.79252,-0.189827 2.168603,-0.328755 2.267077,-0.835983 0.07475,-0.38489 0.119709,-0.40736 0.90011,-0.452864 l 0.820227,-0.04816 0.131688,0.564732 c 0.163034,0.697941 0.06456,1.400875 -0.233506,1.66504 -0.293011,0.258687 -1.63112,0.522851 -2.652028,0.522851 -0.986528,0 -1.024875,0.0716 -0.798136,1.524824 0.253029,1.626382 0.235217,1.607133 1.484497,1.501307 1.996158,-0.170419 4.049252,-0.478154 4.197119,-0.629404 0.209704,-0.216969 0.285387,-3.835133 0.08735,-4.216319 -0.111153,-0.213345 -0.286944,-0.298151 -0.622346,-0.298151 -0.540906,0 -0.557863,-0.01933 -0.68255,-0.797647 -0.09272,-0.57794 -0.08758,-0.587604 0.411708,-0.756975 0.329569,-0.111948 0.833839,-0.13925 1.444439,-0.07691 1.068201,0.108243 1.495932,-0.04462 1.495932,-0.534369 0,-0.440784 0.271075,-0.752787 0.721908,-0.833406 0.311523,-0.05597 0.393974,-0.0077 0.461023,0.265936 0.06697,0.275279 0.169024,0.333991 0.586799,0.333991 0.638602,0 0.83555,-0.202714 0.83555,-0.860467 0,-0.47026 0.04994,-0.542181 0.513682,-0.735311 0.282743,-0.117907 0.562141,-0.167841 0.62079,-0.110175 0.05849,0.05686 0.08922,1.084361 0.06868,2.281154 l -0.03819,2.177342 -0.845584,0.07071 c -0.464601,0.03858 -0.87802,0.104135 -0.918934,0.146257 -0.177347,0.18266 -0.134099,1.147181 0.05701,1.271129 0.286943,0.186204 4.603771,0.103169 4.793951,-0.0927 0.08331,-0.08634 0.219194,-1.029838 0.301567,-2.095757 0.124687,-1.628878 0.117997,-1.959486 -0.04333,-2.064507 -0.105163,-0.06797 -0.762511,-0.125801 -1.459607,-0.126687 l -1.268648,-0.0027 0,-0.894454 c 0,-1.077999 0.108741,-1.159343 1.740716,-1.304633 1.053889,-0.09439 1.54968,-0.320943 1.54968,-0.708169 0,-0.248218 0.543474,-0.621592 0.903456,-0.621592 0.326923,0 0.462811,0.499979 0.466311,1.711913 7.78e-4,0.359441 0.07802,0.717834 0.172369,0.795795 0.09412,0.07844 0.502559,0.188861 0.908355,0.244835 l 0.736298,0.102283 -0.08587,0.751016 c -0.04651,0.413642 -0.02551,0.914588 0.04846,1.114 0.112086,0.304191 0.219971,0.362017 0.674307,0.362017 0.629113,0 0.973849,0.111948 0.973849,0.315548 0,0.07949 0.213282,0.387226 0.473857,0.684733 0.725098,0.825352 1.077534,1.616637 0.885643,1.985742 -0.17408,0.335762 0.0035,3.644338 0.359904,6.702846 0.251552,2.151891 0.250696,2.168401 -0.04675,2.168401 -0.13581,0 -0.320857,0.07619 -0.410852,0.169694 -0.202938,0.20811 -0.209705,2.045179 -0.01105,2.936089 0.0774,0.349051 0.194615,1.188497 0.258864,1.865901 0.145221,1.51967 0.473079,2.890022 0.80257,3.356738 0.319379,0.453187 0.721752,0.651632 1.886016,0.92973 0.518582,0.124109 1.122571,0.282365 1.342231,0.35042 0.2983,0.09262 0.550474,0.05509 0.993606,-0.14674 0.693751,-0.315628 0.679283,-0.217936 0.382228,-2.615467 -0.115741,-0.932065 -0.194614,-2.29678 -0.176724,-3.033862 0.03236,-1.29674 0.02217,-1.346674 -0.303044,-1.515401 -0.184347,-0.09697 -0.706507,-0.18266 -1.158429,-0.191358 -0.452623,-0.0088 -0.968871,-0.05871 -1.147073,-0.110176 l -0.325213,-0.09359 -0.01781,-3.986383 c -0.01019,-2.192081 0.0059,-3.985418 0.03563,-3.985418 0.02894,0 0.126554,0.103169 0.215694,0.22913 0.09,0.126686 0.495792,0.283252 0.906022,0.351387 0.869464,0.143519 1.08189,-0.02191 1.094413,-0.854104 0.01198,-0.777432 0.293944,-1.412232 0.759945,-1.712155 l 0.425475,-0.273587 0.170813,1.686705 c 0.0942,0.927554 0.128887,2.007326 0.07638,2.399948 l -0.09505,0.713726 -1.049455,0.0026 c -0.57762,6.44e-4 -1.136261,0.0575 -1.241424,0.126686 -0.151289,0.09874 -0.17089,0.355011 -0.09443,1.228525 0.141721,1.607134 0.04239,1.559858 2.274,1.088711 1.547113,-0.327064 1.559014,-0.347118 1.451284,-2.375787 -0.05025,-0.932146 -0.180069,-2.297746 -0.288732,-3.034909 -0.261742,-1.768934 -0.25653,-2.067085 0.03648,-2.162522 1.694669,-0.546369 4.50273,-1.678812 4.744948,-1.912936 0.520371,-0.503603 0.687683,-0.418153 0.841384,0.428462 l 0.09412,0.515684 -0.732799,0.157371 c -1.052721,0.226553 -1.097058,0.27552 -1.048521,1.137758 0.06199,1.095476 0.243696,1.150564 1.614163,0.488704 l 1.129338,-0.545564 -0.09412,-1.296659 c -0.105396,-1.446219 -0.136743,-1.385171 0.902444,-1.766357 l 0.631757,-0.231627 0.08066,1.458299 c 0.11473,2.096079 0.07825,2.05573 1.779764,1.944668 0.770289,-0.05082 1.545479,-0.14674 1.722981,-0.214231 0.318213,-0.120485 0.321713,-0.144324 0.223239,-1.426004 -0.05515,-0.716948 -0.176724,-1.610596 -0.270842,-1.984775 -0.167312,-0.663712 -0.163034,-0.683927 0.163034,-0.811419 0.183491,-0.07281 0.387984,-0.131196 0.454333,-0.131196 0.06604,0 0.206282,-0.126042 0.31059,-0.279789 0.234361,-0.344541 1.050388,-0.70825 1.590672,-0.70825 0.222305,0 1.192887,-0.407682 2.163392,-0.908628 1.14295,-0.590262 2.611113,-1.188336 4.189648,-1.705873 1.33562,-0.438045 2.5779,-0.917246 2.759602,-1.065033 0.346448,-0.280674 0.726887,-0.451012 1.356077,-0.607658 l 0.377017,-0.09455 0.0016,1.026535 c 0.0016,1.106269 0.223317,4.065874 0.344737,4.599357 0.05515,0.240325 0.155333,0.314823 0.378727,0.282366 0.340459,-0.04977 0.377795,-0.244755 0.634247,-3.287717 0.116364,-1.382191 0.106174,-1.740826 -0.06285,-2.158737 -0.185047,-0.455442 -0.181702,-0.524624 0.03827,-0.77558 0.292933,-0.333024 1.265148,-0.861352 1.376379,-0.747633 0.04418,0.04542 0.133321,0.827929 0.198737,1.739296 0.145999,2.028427 0.26493,2.747147 0.466156,2.816329 0.252174,0.08569 0.32179,-0.483469 0.323501,-2.637132 0.0016,-1.886922 0.01867,-2.01989 0.214838,-1.730437 0.117142,0.171465 0.266642,0.646236 0.332836,1.054482 0.167312,1.030966 0.505281,1.943862 0.863552,2.337048 0.223316,0.244997 0.331202,0.597269 0.410152,1.344983 0.149422,1.406111 0.150278,1.475937 0.02971,3.695963 -0.122276,2.26996 -0.16389,2.17557 1.082668,2.472835 0.781179,0.185237 0.814315,0.181694 1.056299,-0.127008 l 0.250463,-0.3174 0.412719,0.466959 c 0.226661,0.257238 0.414353,0.56594 0.41692,0.686585 0.0062,0.316434 0.28531,0.557725 0.647858,0.557725 0.281888,0 0.315879,0.0666 0.315879,0.620061 0,0.367092 0.06962,0.646075 0.171513,0.685377 0.191891,0.07345 6.517866,-0.160834 6.785363,-0.250875 0.200371,-0.06822 0.237783,-1.716423 0.04504,-2.029393 -0.101974,-0.166311 -0.343959,-0.171466 -1.510633,-0.03503 -0.764223,0.08924 -1.617585,0.16172 -1.897761,0.160028 l -0.509482,-0.0027 0.44321,-0.290983 c 0.24284,-0.160915 0.767645,-0.377884 1.165041,-0.481858 1.249047,-0.326179 4.642118,-1.611483 5.055618,-1.914788 l 0.39568,-0.290339 0.0213,0.397776 c 0.0118,0.218661 0.004,1.29666 -0.0162,2.394874 -0.0416,2.26545 -0.0221,2.308457 1.08266,2.308457 0.54254,0 0.55701,-0.01321 0.55701,-0.481938 0,-0.508838 -0.32264,-2.38078 -0.48311,-2.800463 -0.14017,-0.368219 0.47035,-0.323682 1.04611,0.07611 0.41264,0.286796 0.4772,0.419683 0.57054,1.164658 0.0578,0.462449 0.0884,1.381547 0.0688,2.041635 l -0.0366,1.199612 -0.82279,0.100431 c -0.45255,0.05509 -1.00792,0.155841 -1.23381,0.222284 l -0.41093,0.121532 0,1.189061 c 0,0.654049 0.051,1.454112 0.11295,1.777472 l 0.11294,0.58849 -1.20666,0.37885 c -0.66396,0.208754 -1.60903,0.443201 -2.1007,0.521081 -1.379875,0.219305 -1.423122,0.262312 -1.313603,1.29062 0.112942,1.04828 0.593566,3.058586 0.790513,3.30318 0.07817,0.0964 0.37025,0.175733 0.64794,0.175733 0.59177,0 2.63989,-0.685296 3.45249,-1.155074 l 0.56463,-0.326983 -0.11885,-1.481978 c -0.0653,-0.814802 -0.11885,-2.371197 -0.11885,-3.458136 l -7.8e-4,-1.976158 0.46872,-0.04631 c 0.25817,-0.02521 0.74556,0.02537 1.08345,0.112914 0.445,0.116055 0.6547,0.117022 0.76422,0.0041 0.096,-0.09866 0.15285,-0.978294 0.15712,-2.441989 0.003,-1.258243 0.0594,-3.031446 0.12399,-3.940718 0.12648,-1.783834 0.051,-2.083757 -0.52309,-2.089797 -0.31083,-0.0036 0.46787,-0.411951 1.49017,-0.782506 0.72603,-0.263359 0.7286,-0.262392 0.77869,0.185318 0.0366,0.326178 0.11722,0.395038 0.50186,0.433455 0.48055,0.04736 2.28754,-0.454556 2.60676,-0.723875 0.12484,-0.106793 0.16389,-0.354125 0.11979,-0.762291 -0.0663,-0.605081 -0.0663,-0.605967 0.38549,-0.605967 0.2479,0 0.55701,-0.04212 0.68605,-0.0927 0.21484,-0.08481 0.22589,-0.0062 0.12741,0.882131 -0.0603,0.536141 -0.11465,1.227559 -0.12142,1.537146 -0.0127,0.559658 -0.0162,0.563202 -0.65214,0.657673 -0.35243,0.05146 -1.35436,0.336648 -2.2281,0.633027 l -1.58787,0.537671 0,4.19699 3.1188,-0.101397 c 1.71528,-0.05597 3.2666,-0.158257 3.44667,-0.228084 l 0.32855,-0.126041 -0.0968,-1.936614 c -0.0535,-1.065033 -0.15627,-1.99895 -0.22931,-2.074173 -0.0857,-0.08907 -0.22502,-0.07796 -0.39825,0.0331 -0.55102,0.35501 -0.67329,-0.606612 -0.40758,-3.21322 0.15798,-1.549388 0.22759,-1.834331 0.44834,-1.834331 0.0884,0 0.46958,-0.153988 0.84745,-0.341158 0.71919,-0.355977 1.45883,-0.626987 2.94901,-1.079852 1.67195,-0.508758 1.4894,-0.613698 1.40702,0.808681 -0.0399,0.68578 -0.0909,1.26976 -0.11465,1.297707 -0.0237,0.02803 -0.52395,0.144404 -1.11324,0.258043 -0.58843,0.114444 -1.27028,0.334877 -1.51569,0.490476 -0.24455,0.155599 -0.44406,0.292996 -0.44321,0.305963 7.8e-4,0.01329 0.0943,0.373374 0.20893,0.799983 0.29122,1.091207 0.39141,3.225783 0.27341,5.816606 l -0.10104,2.215516 -0.70565,0.135707 c -0.94593,0.179841 -2.91082,0.40728 -5.16094,0.596302 -1.01811,0.08569 -2.05745,0.243949 -2.30962,0.352273 -0.45348,0.194982 -0.45861,0.20819 -0.41101,0.990777 l 0.0475,0.792171 -1.02488,0.269319 c -0.56385,0.147626 -1.10219,0.348648 -1.19724,0.446663 -0.19361,0.199492 0.0331,2.552326 0.46102,4.76897 0.29636,1.534327 0.2437,1.684933 -0.59014,1.684933 -0.69624,0 -3.22327,0.824547 -4.98266,1.626382 -0.56548,0.256835 -1.196384,0.506019 -1.401888,0.551523 -0.20636,0.04655 -0.699663,0.359602 -1.097059,0.69617 -0.640235,0.542181 -0.718408,0.666128 -0.687761,1.092174 0.07895,1.110456 0.893265,2.675548 1.581882,3.041915 0.221606,0.118069 0.349015,0.263842 0.284455,0.324407 -0.06534,0.05928 -0.766712,0.184512 -1.558159,0.276083 -0.791369,0.09181 -1.646443,0.204567 -1.899472,0.250071 l -0.460245,0.08303 0.09171,1.075502 c 0.118931,1.400149 0.569764,4.252961 0.827928,5.239308 0.3074,1.176015 0.291221,1.232874 -0.376161,1.303023 -0.943436,0.09769 -3.022044,0.547335 -3.393149,0.732492 -0.280176,0.141022 -0.335402,0.259734 -0.304833,0.656061 0.05865,0.762211 0.319301,0.877863 1.759384,0.778801 l 1.249981,-0.08545 0.08657,0.656464 c 0.04838,0.361132 0.08743,0.81601 0.08743,1.010992 l 0,0.354125 -1.862058,-0.0807 -1.862992,-0.08022 -1.119149,0.826077 c -0.6148,0.454878 -1.34931,1.071315 -1.632053,1.370352 l -0.513682,0.544517 -0.08665,1.900049 c -0.06619,1.447105 -0.03057,2.31031 0.151989,3.619936 0.195315,1.402734 0.211416,1.886284 0.08665,2.623364 -0.208071,1.22917 -0.189403,2.58003 0.04582,3.38034 0.140088,0.47477 0.159689,0.7974 0.06713,1.12793 -0.197881,0.71155 -0.152845,1.87887 0.09676,2.52237 0.209705,0.53952 0.209705,0.69866 0,2.22622 -0.413497,3.0089 -0.346447,3.22313 1.70587,5.45959 1.874037,2.04252 2.353806,2.81463 2.431045,3.9155 0.05437,0.7714 0.10703,0.88858 0.607177,1.35634 0.300556,0.28245 0.644436,0.57102 0.764223,0.64181 0.50777,0.3025 2.673885,1.29561 1.975,1.06584 z M 46.595025,87.27768 c -0.06277,-0.71872 -0.20387,-1.861552 -0.314401,-2.541131 -0.138143,-0.85056 -0.200992,-2.309907 -0.200992,-4.682308 l 0,-3.446618 -0.582598,-0.228405 c -0.321091,-0.124834 -0.761656,-0.241292 -0.980772,-0.258849 -0.477202,-0.0356 -0.554519,0.172512 -0.77519,2.087139 -0.239496,2.088266 -0.113953,1.906411 -1.31703,1.906411 l -1.045177,0 0.09,1.093863 c 0.05001,0.601296 0.123053,1.856318 0.1621,2.787497 0.06028,1.431158 0.396541,3.793736 0.571553,4.017551 0.08735,0.111947 2.944805,0.532677 3.745353,0.551926 l 0.760022,0.01836 -0.112864,-1.305438 z M 63.905973,86.0378 c 3.051057,-2.242094 3.038223,-2.229611 2.946516,-2.796275 -0.04496,-0.28438 -0.168012,-1.315023 -0.271698,-2.291947 -0.290365,-2.718231 -0.591932,-3.251794 -1.696613,-3.000838 -0.353292,0.08062 -0.751544,0.194982 -0.885565,0.254661 -0.22915,0.102283 -0.237862,-0.01337 -0.151133,-1.996212 0.05079,-1.157652 0.04768,-2.410015 -0.0058,-2.782503 l -0.09941,-0.676518 -0.77799,0.07756 c -0.427732,0.04309 -1.183554,0.116538 -1.679423,0.162847 l -0.902522,0.08392 -0.154556,2.003057 c -0.10104,1.313251 -0.111308,2.343491 -0.028,2.991418 0.07039,0.542826 0.12881,1.886681 0.131454,2.985778 l 0.0052,1.997983 -0.72012,0.09463 c -1.207588,0.15721 -1.199732,0.15125 -1.199732,0.944307 0,0.390045 0.10703,0.941729 0.237551,1.22482 0.267575,0.581483 1.093869,1.480528 1.94972,2.118629 l 0.574898,0.428462 0.862541,-0.543631 c 0.47479,-0.299037 1.313607,-0.875527 1.864703,-1.280149 l 0,0 z m 26.382363,0.806828 c 0.377017,-0.162364 0.947636,-0.457294 1.267793,-0.654048 l 0.582443,-0.358233 -0.0016,-1.412312 c -0.0023,-1.801229 -0.08486,-1.952318 -0.777757,-1.427936 -0.287021,0.218016 -1.023164,0.733861 -1.634542,1.146537 -0.611378,0.412515 -1.151429,0.856923 -1.19981,0.986347 -0.0476,0.129425 -0.125698,0.56747 -0.171513,0.972978 -0.145221,1.273304 0.309034,1.449038 1.935098,0.746667 l 0,0 z m 5.135498,-0.443039 c 0.09085,-0.112833 0.143511,-0.319413 0.118076,-0.45818 -0.03905,-0.212459 -0.259019,-0.274795 -1.328075,-0.376192 -1.549603,-0.147787 -1.937664,-0.02432 -1.937664,0.613135 l 0,0.426689 1.491031,0 c 1.136105,0 1.530156,-0.04921 1.656632,-0.205452 l 0,0 z m 0.199593,-2.421371 c 0.253029,-0.100592 0.290366,-0.855151 0.07809,-1.609549 -0.07638,-0.271252 -0.199514,-0.906052 -0.274264,-1.410621 -0.249685,-1.699507 -0.284454,-1.835294 -0.465301,-1.835294 -0.272553,0 -1.427404,1.333465 -1.534357,1.770624 -0.09855,0.405909 0.02715,2.822689 0.157901,3.042155 0.08665,0.142552 1.698246,0.176458 2.037927,0.04268 l 0,0 z M 74.166858,81.569719 c 0.322724,-0.216163 0.326924,-0.244996 0.24284,-1.759185 -0.08152,-1.47336 -0.230083,-2.097045 -0.50007,-2.097045 -0.06798,0 -0.296355,0.152136 -0.506137,0.33842 -0.36776,0.326098 -0.383784,0.396327 -0.433876,1.90464 -0.02886,0.861271 -0.01455,1.668258 0.03228,1.79422 0.0984,0.26207 0.620712,0.180727 1.164963,-0.18105 l 0,0 z m 23.748303,-2.99673 0.32358,-0.269238 -0.343103,-1.024603 C 97.708024,76.71498 97.48043,76.229015 97.39129,76.19841 c -0.24284,-0.08215 -0.728598,0.480731 -0.729454,0.84444 -7.78e-4,0.203116 -0.145144,0.402206 -0.399885,0.551765 -0.4653,0.272137 -0.895832,0.88946 -0.7685,1.100791 0.04931,0.08134 0.540906,0.147787 1.093713,0.147787 0.784602,0 1.075823,-0.0592 1.327997,-0.270204 l 0,0 z M 31.514598,75.84348 c -0.06464,-0.200459 -0.285387,-0.177506 -0.354226,0.03471 -0.02536,0.07804 0.05702,0.141907 0.182714,0.141907 0.125542,0 0.202781,-0.07957 0.171512,-0.176619 l 0,0 z M 65.89303,75.071363 c 0.423609,-0.20811 0.483269,-0.294849 0.413419,-0.599846 -0.04504,-0.196915 -0.114575,-1.342164 -0.1537,-2.545319 -0.10353,-3.146131 -0.09319,-3.105862 -0.742988,-3.105862 -0.530639,0 -0.534139,0.0036 -0.629968,0.665484 -0.110375,0.758747 0.01104,5.207579 0.152844,5.580953 0.117142,0.310634 0.335403,0.31152 0.960393,0.0046 l 0,0 z m 22.829525,0.08134 c 0.287021,-0.08859 0.75061,-0.354125 1.029153,-0.591309 l 0.506059,-0.430233 -0.07895,-1.445977 c -0.04418,-0.795714 -0.1537,-1.699832 -0.243696,-2.009339 -0.220749,-0.760036 -0.106174,-1.008173 0.466157,-1.008173 l 0.464445,0 0.08836,0.867393 c 0.04838,0.477428 0.08828,1.072845 0.08828,1.323639 0,0.250876 0.09847,0.540329 0.219038,0.643498 0.190259,0.162848 0.336336,0.06298 1.111526,-0.759633 0.761656,-0.808117 0.879731,-0.999395 0.804126,-1.308902 -0.146855,-0.600087 -0.343025,-5.252519 -0.254741,-6.021012 0.06798,-0.594692 0.03905,-0.747553 -0.171513,-0.906696 -0.33198,-0.249426 -1.449417,-0.239842 -2.393708,0.02078 -1.148862,0.318205 -1.322086,0.287842 -1.425616,-0.246527 -0.04932,-0.251761 -0.127409,-1.105301 -0.174935,-1.89562 -0.07981,-1.342163 -0.105319,-1.441708 -0.39654,-1.51693 -0.65727,-0.17066 -0.711563,-0.04124 -0.814315,1.943539 -0.07817,1.497038 -0.05772,1.962225 0.105318,2.36266 0.111231,0.274634 0.280177,1.067691 0.375306,1.761847 0.09505,0.693512 0.250463,1.528448 0.345592,1.85358 0.168945,0.584302 0.166379,0.593967 -0.189403,0.663793 -0.198659,0.0393 -0.702229,0.139894 -1.119149,0.222848 -0.416919,0.08303 -0.949269,0.272057 -1.184486,0.418797 -0.376161,0.235251 -0.438155,0.367253 -0.519672,1.091288 -0.149422,1.338862 0.262364,4.122654 0.673372,4.547813 0.460167,0.477429 1.817099,0.687955 2.689986,0.418877 l 0,0 z M 72.771034,73.761334 c 0.253885,-0.518261 0.235061,-3.112547 -0.02481,-3.466672 -0.375228,-0.511577 -0.193525,-1.046026 0.192825,-0.566665 0.437299,0.542826 2.444657,0.836789 3.161276,0.46261 l 0.343025,-0.179519 0,-2.747952 c 0,-1.510891 0.05437,-3.296577 0.121498,-3.967136 l 0.122276,-1.219746 -0.533284,-0.08126 c -0.292932,-0.04542 -0.944214,-0.122418 -1.446073,-0.172351 -1.059722,-0.105022 -1.0682,-0.117908 -1.075823,-1.683081 -0.006,-1.342163 -0.226739,-2.815443 -0.502714,-3.361167 -0.134177,-0.26505 -0.288655,-1.112228 -0.376006,-2.059112 -0.173379,-1.878224 -0.25653,-1.997178 -1.18892,-1.693873 -0.683639,0.223171 -0.685973,0.236218 -0.423609,1.820559 0.08385,0.50457 0.194303,1.755806 0.245407,2.779684 l 0.09319,1.862519 -0.32778,0.06983 c -0.180847,0.03858 -0.694451,0.106794 -1.141161,0.153183 -0.446555,0.04631 -0.970349,0.163331 -1.164964,0.26054 -0.324357,0.162526 -0.349714,0.241292 -0.313156,0.948576 0.05336,1.033542 0.413342,3.045379 0.648559,3.624205 0.104541,0.256432 0.361771,0.620141 0.573186,0.807231 l 0.383084,0.33995 -0.342403,0.07103 c -1.923896,0.401321 -3.573917,0.852334 -3.70296,1.013329 -0.508704,0.631175 0.636035,0.634799 3.292185,0.01047 l 1.986746,-0.467764 -0.04823,-2.454394 c -0.02629,-1.350056 -0.109519,-2.57246 -0.183491,-2.716623 -0.179058,-0.345346 -0.02637,-0.480166 0.677572,-0.595658 0.570619,-0.09423 0.58252,-0.08722 0.590143,0.310554 0.005,0.222929 0.05935,1.708531 0.122198,3.299799 l 0.114731,2.893404 -0.362549,0.401321 c -0.449355,0.497643 -1.352655,1.054482 -2.018326,1.243504 l -0.504581,0.143116 0.08004,0.729271 c 0.254508,2.343571 0.530639,3.996128 0.717319,4.289688 0.194537,0.3054 0.293866,0.330769 1.127705,0.293158 0.818516,-0.03761 0.933246,-0.07893 1.08788,-0.394555 l 0,0 z m -28.591964,-0.0811 c 0.63098,-0.122418 1.204944,-0.280675 1.275572,-0.351548 0.08074,-0.0815 0.0078,-0.299843 -0.19197,-0.57794 -0.269053,-0.37426 -0.341236,-0.708492 -0.439088,-2.013044 -0.0637,-0.860145 -0.153622,-1.80276 -0.199592,-2.095757 -0.04908,-0.313775 -0.01952,-0.609591 0.07133,-0.722988 0.08587,-0.104941 0.116598,-0.294769 0.06977,-0.421455 -0.06892,-0.184512 -0.291221,-0.229211 -1.133616,-0.227439 -0.576454,8.86e-4 -1.114871,0.04905 -1.198099,0.105907 -0.34567,0.238554 -0.482413,2.386177 -0.280176,4.409449 0.142499,1.4314 0.191036,1.637496 0.440565,1.8957 0.262597,0.270124 0.18777,0.270124 1.585305,-8.85e-4 l 0,0 z m 3.686081,-0.845568 c 0.145144,-0.395199 0.153856,-1.996211 0.01284,-2.673132 -0.06868,-0.332944 -0.160468,-0.423227 -0.428898,-0.423227 -0.335403,0 -0.343959,0.0273 -0.461101,1.512663 -0.06518,0.831553 -0.08237,1.609952 -0.03804,1.728906 0.13651,0.367172 0.762356,0.267305 0.9152,-0.14521 l 0,0 z M 62.009923,70.08454 c 0.280254,-0.07933 0.549385,-0.211332 0.597844,-0.292675 0.04908,-0.0815 0.04496,-0.689887 -0.0084,-1.351828 l -0.097,-1.203961 -0.439787,0.07329 c -0.241907,0.04035 -0.65976,0.167921 -0.928813,0.283412 -0.47129,0.202875 -0.491747,0.242258 -0.584309,1.133088 -0.151056,1.45403 0.1502,1.733819 1.460462,1.358674 l 0,0 z M 48.288138,66.836446 c 0.280178,-0.154874 0.292779,-0.233479 0.214762,-1.366728 -0.04496,-0.661055 -0.117141,-1.238109 -0.160469,-1.282646 -0.146078,-0.149479 -1.370467,0.263842 -1.595495,0.538556 -0.299777,0.366448 -0.460245,1.726975 -0.25124,2.129181 0.141721,0.271976 0.238406,0.298151 0.827694,0.226231 0.366904,-0.04446 0.800858,-0.154633 0.964748,-0.244594 l 0,0 z M 34.600191,66.561812 c 0.641091,-0.231707 1.131049,-0.282528 2.752913,-0.282528 l 1.973366,0 0.701374,-1.091207 -0.287177,-1.182941 c -0.193447,-0.800949 -0.27932,-1.571214 -0.264697,-2.383438 0.01167,-0.660169 -0.03741,-1.294969 -0.110452,-1.411426 -0.09583,-0.154633 -0.385651,-0.212298 -1.061434,-0.212298 l -0.928812,0 0,-2.116938 c -7.78e-4,-2.088025 -0.0054,-2.117744 -0.309189,-2.162281 -0.498437,-0.07345 -0.623202,0.502717 -0.529939,2.444727 0.04496,0.93126 0.120642,2.116858 0.169179,2.634394 l 0.08821,0.939957 -0.805837,0.08295 c -0.443288,0.04566 -1.63882,0.243064 -2.656927,0.439093 -1.018031,0.195707 -2.236587,0.353964 -2.707021,0.353078 l -0.856629,-0.0032 0,1.011395 c 0,1.213787 0.238406,2.73692 0.458378,2.919661 0.262363,0.219626 0.641091,0.270124 2.15009,0.2876 1.123427,0.01232 1.617508,-0.04703 2.224608,-0.26658 l 0,0 z m 51.26421,-0.136351 c 0.660615,-0.534289 0.710707,-0.933837 0.321868,-2.55579 -0.203015,-0.84903 -0.458534,-1.573227 -0.610523,-1.728745 -0.147788,-0.152217 -0.533283,-0.299924 -0.892487,-0.341803 l -0.631758,-0.07345 0,4.524055 0.51376,0.219386 c 0.685273,0.292997 0.893266,0.285829 1.29914,-0.04365 l 0,0 z m 11.282337,-1.538837 c 0.504348,-0.243144 1.021531,-0.44167 1.148862,-0.44167 0.128188,0 0.737932,-0.251842 1.356077,-0.559659 0.944213,-0.470502 1.123353,-0.613698 1.123353,-0.898963 0,-0.290098 -0.0807,-0.350501 -0.55787,-0.416945 -0.748896,-0.103169 -5.074357,0.539443 -5.220435,0.776466 -0.134176,0.216969 -0.152844,1.541576 -0.02715,1.879754 0.129898,0.349052 1.04611,0.2065 2.177159,-0.338983 l 0,0 z M 42.631101,64.494001 c 0.237862,-0.159142 0.298067,-0.293882 0.232884,-0.520274 -0.06806,-0.234286 -0.291377,-3.723992 -0.341547,-5.33636 -0.01019,-0.33842 -0.681617,-0.475657 -0.953392,-0.194096 -0.186058,0.190552 -0.217327,0.635444 -0.209782,2.937055 0.0054,1.491722 0.05344,2.892438 0.108663,3.113675 0.08743,0.352273 0.146155,0.389884 0.470435,0.307816 0.204648,-0.05187 0.516249,-0.189908 0.692739,-0.307816 l 0,0 z m 22.975841,-0.520274 c 0.216472,-0.163574 0.241907,-0.336649 0.185047,-1.254862 -0.04418,-0.709055 -0.157823,-1.224175 -0.338747,-1.540609 -0.238717,-0.415253 -0.338902,-0.472193 -0.810115,-0.460676 -0.791524,0.02005 -3.612187,1.29223 -3.798945,1.713685 -0.4604,1.040388 0.745477,1.719967 3.064436,1.726974 0.998584,0.0027 1.525023,-0.0542 1.698324,-0.184512 l 0,0 z M 48.013018,62.299182 c 0.117142,-0.225586 0.129043,-0.754559 0.04402,-1.941123 -0.06456,-0.896306 -0.119553,-2.138603 -0.122198,-2.75955 -0.0054,-1.263317 -0.08572,-1.482058 -0.544251,-1.482058 -0.685194,0 -0.877086,0.661941 -1.036931,3.574593 -0.152689,2.782906 -0.115353,2.918692 0.814315,2.918692 0.56393,0 0.712575,-0.0542 0.84504,-0.310554 l 0,0 z m 43.104101,-0.318285 c 0.365971,-0.376756 0.431309,-0.770184 0.172368,-1.037086 -0.440721,-0.45367 -1.069912,0.08754 -1.069912,0.92095 0,0.371602 0.05523,0.462449 0.280176,0.462449 0.154556,0 0.432243,-0.1556 0.617368,-0.346313 l 0,0 z M 78.619648,59.201293 c 0.496803,-0.10333 0.830494,-0.254338 0.914578,-0.417105 0.07296,-0.139895 0.286943,-1.207585 0.47549,-2.371277 0.191037,-1.183101 0.523017,-2.623924 0.752322,-3.26412 0.439788,-1.226591 0.508626,-1.815082 0.246185,-2.086172 -0.09762,-0.09962 -0.566342,-0.168807 -1.148784,-0.168807 -1.332276,0 -1.387502,0.07788 -1.172664,1.66657 0.09085,0.674988 0.201226,1.400714 0.244551,1.613093 0.05352,0.26054 0.01781,0.404944 -0.107885,0.442555 -0.102675,0.03157 -0.439788,0.126767 -0.749755,0.213345 l -0.562061,0.156485 -0.0756,2.08279 c -0.04161,1.14541 -0.04753,2.130146 -0.0119,2.188617 0.08579,0.142471 0.276831,0.133773 1.195529,-0.05597 l 0,0 z m -3.553535,-2.4018 c 0.401596,-0.189023 0.421975,-0.383038 0.191036,-1.823217 -0.08665,-0.540409 -0.127409,-1.012441 -0.09085,-1.050052 0.03648,-0.03753 0.430532,-0.140861 0.877164,-0.229292 1.131828,-0.222929 1.182776,-0.293641 0.997729,-1.378808 -0.176646,-1.028147 -0.479769,-1.424312 -1.090291,-1.424312 -0.420342,0 -0.422909,0.0052 -0.377017,0.664598 l 0.04667,0.665243 -0.650426,0.189828 c -0.775268,0.226553 -0.894977,0.422421 -1.053733,1.723349 -0.09171,0.753673 -0.07133,1.183826 0.08486,1.803001 0.113797,0.445939 0.235217,0.859662 0.270064,0.917327 0.09085,0.152941 0.393118,0.131196 0.794792,-0.05767 l 0,0 z m -1.497021,-2.294444 c 0.279321,-0.438931 0.230084,-1.705872 -0.06705,-1.705872 -0.191114,0 -0.249685,0.186203 -0.476268,1.517816 -0.07218,0.42065 -0.04768,0.528973 0.117919,0.528973 0.114575,0 0.306545,-0.152861 0.425398,-0.340917 l 0,0 z" />
    </g>
  </g>
</svg>
