<?xml version="1.0" encoding="UTF-8" standalone="no"?>
<!-- Created with Inkscape (http://www.inkscape.org/) -->

<svg
   xmlns:dc="http://purl.org/dc/elements/1.1/"
   xmlns:cc="http://creativecommons.org/ns#"
   xmlns:rdf="http://www.w3.org/1999/02/22-rdf-syntax-ns#"
   xmlns:svg="http://www.w3.org/2000/svg"
   xmlns="http://www.w3.org/2000/svg"
   xmlns:sodipodi="http://sodipodi.sourceforge.net/DTD/sodipodi-0.dtd"
   xmlns:inkscape="http://www.inkscape.org/namespaces/inkscape"
   width="78.448677mm"
   height="9.865756mm"
   viewBox="0 0 277.96775 34.957403"
   id="svg4980"
   version="1.1"
   inkscape:version="0.91 r13725"
   sodipodi:docname="ateneo_de_molina.svg">
  <defs
     id="defs4982" />
  <sodipodi:namedview
     id="base"
     pagecolor="#ffffff"
     bordercolor="#666666"
     borderopacity="1.0"
     inkscape:pageopacity="0.0"
     inkscape:pageshadow="2"
     inkscape:zoom="0.35"
     inkscape:cx="-476.01612"
     inkscape:cy="-59.664159"
     inkscape:document-units="px"
     inkscape:current-layer="layer1"
     showgrid="false"
     fit-margin-top="0"
     fit-margin-left="0"
     fit-margin-right="0"
     fit-margin-bottom="0"
     inkscape:window-width="1920"
     inkscape:window-height="1017"
     inkscape:window-x="1912"
     inkscape:window-y="-8"
     inkscape:window-maximized="1" />
  <metadata
     id="metadata4985">
    <rdf:RDF>
      <cc:Work
         rdf:about="">
        <dc:format>image/svg+xml</dc:format>
        <dc:type
           rdf:resource="http://purl.org/dc/dcmitype/StillImage" />
        <dc:title></dc:title>
      </cc:Work>
    </rdf:RDF>
  </metadata>
  <g
     inkscape:label="Layer 1"
     inkscape:groupmode="layer"
     id="layer1"
     transform="translate(-363.87327,-437.74064)">
    <g
       id="g4344"
       transform="matrix(0.94158601,0,0,0.97492859,231.39088,340.77896)">
      <path
         inkscape:connector-curvature="0"
         id="path22"
         d="m 162.87774,105.44358 c -1.19126,0.17054 -2.39763,0.18771 -3.59894,0.19109 -0.36444,1.06533 -0.99901,1.96086 -0.97445,3.09138 0.27351,1.25802 -0.67291,2.20442 -1.23588,3.19086 -0.36575,1.37529 -1.25997,2.62373 -1.67086,3.9322 0.0857,1.33808 -0.81695,2.46766 -1.05149,3.7471 -0.93068,0.39837 -1.76165,-0.70857 -2.64881,-0.24211 -0.95642,-0.10136 -1.51342,0.97417 -2.35988,1.2848 -0.32462,0.61986 -0.92945,2.09891 -1.55508,0.83333 -1.0759,-0.71565 -2.39401,-0.36824 -3.57186,-0.42088 -0.57283,-0.20829 -1.19743,0.9591 -1.78037,1.55018 -0.34853,0.89947 -1.1536,0.67125 -1.08801,1.81052 -0.33196,1.22 -1.0226,2.50086 -0.37053,3.7465 0.29835,0.94696 0.6808,1.81486 1.59023,2.30207 0.67398,0.63587 1.66873,0.75536 2.38216,1.28289 0.96306,0.14023 1.83273,0.85076 2.80847,0.55512 0.31234,0.66317 1.62325,-0.42401 2.28458,-0.54334 0.6879,-0.56824 1.81537,-0.3513 2.28547,-1.34322 0.57916,-0.49851 0.69167,-1.33354 1.12204,-1.91016 0.11029,-0.9155 0.87781,-1.6314 1.06276,-2.59883 -0.47035,-1.05878 0.61661,-1.98673 0.81114,-3.03915 0.0988,-1.14003 0.56887,-1.2553 1.5281,-1.04886 0.87398,-0.5868 1.70417,0.71601 2.67613,0.36308 0.6181,-0.57034 1.6939,-0.47706 2.31308,-0.0859 0.0344,0.53342 1.00034,0.94053 0.59296,1.71485 0.21133,1.26778 0.62495,2.49246 1.12294,3.67426 0.64077,-0.0344 0.30328,1.03722 0.52364,1.45056 0.87106,1.93519 2.69111,3.92504 5.00939,3.60176 0.98258,-0.0579 2.1797,-0.21426 2.77584,-0.95472 0.49164,-0.54736 0.68645,-1.3575 0.85935,-2.1396 0.2336,-0.74628 0.0531,-1.85404 -0.74533,-2.47355 0.0205,-0.80681 -1.06321,-1.36652 -1.95512,-1.04649 -1.3475,0.28789 -2.0868,1.53884 -1.91339,2.9116 0.40407,0.0657 0.12371,0.87688 0.31268,1.24087 -0.2303,0.18907 -0.2862,-0.85699 -0.29931,-1.15395 -1.03731,-0.42358 -0.77052,-1.78599 -1.27778,-2.64774 -0.26143,-0.48807 -0.41009,-0.97971 -0.32656,-1.4942 -0.66993,-0.74216 -0.4933,-1.8029 -0.92692,-2.62875 0.76745,-0.34858 1.204,0.49516 1.76375,0.47578 0.54283,-0.14425 0.96759,-0.54298 1.56175,-0.42228 1.03991,-0.14754 1.37532,-0.86073 1.69479,-1.52059 -0.23145,-0.65317 0.31719,-1.95121 -0.30538,-2.38105 -0.70973,-0.6733 -0.427,0.44591 -0.99597,0.66902 -0.76331,0.84854 -1.78257,1.27542 -2.9249,1.29629 -1.21962,0.43868 -1.71289,-0.75691 -1.35886,-1.71049 -0.48499,-0.71489 0.22505,-1.40682 0.19661,-2.01912 -0.69805,-0.86525 -0.60995,-1.6998 -0.66732,-2.71934 -0.0847,-1.04116 -0.0489,-1.48249 -0.7219,-1.90377 0.39588,-1.12408 0.40723,-2.42872 -0.24563,-3.45819 0.0317,-0.71492 0.35899,-1.15315 0.98148,-1.402 0.63406,-0.52864 0.45137,-1.46007 -0.28554,-1.47269 -0.35802,-0.046 -1.01396,0.16728 -1.40327,-0.13517 z m -2.16599,3.95508 c -0.0379,0.89242 -0.26875,2.15632 0.65807,2.69772 0.007,0.91167 -0.61067,1.17273 -0.41948,2.11037 0.006,1.51647 0.58753,2.98303 0.88716,4.40976 0.0358,0.63493 -0.47055,1.00891 -0.30651,1.65501 -0.73946,0.18287 -1.35272,-0.42631 -2.09208,-0.14323 -0.63765,-0.28814 -1.54139,0.0332 -1.89959,-0.69079 -0.52226,0.51658 -1.35241,0.29196 -0.76083,-0.38041 0.43462,-0.68832 0.29933,-1.56161 0.73303,-2.21033 0.10922,-1.2013 0.40096,-2.47439 1.14263,-3.39765 0.36989,-1.32635 1.56146,-2.25068 1.5812,-3.67347 0.0816,-0.38626 0.18679,-1.27457 0.4764,-0.37698 z m -8.17373,12.01163 c 0.43949,0.10536 1.47466,-0.0189 0.84492,0.65731 -0.63203,0.91869 -0.67335,2.41578 -1.81725,2.83325 0.61433,0.76204 -0.5716,1.3342 -0.83809,2.03612 -0.5586,0.52933 -0.28673,1.09679 -0.81094,1.44213 -1.02062,-0.68225 -0.41038,0.78768 -1.20773,0.94839 -0.75213,0.43117 -1.16814,1.41021 -2.18851,1.15671 -0.89329,-0.29174 -2.04911,-0.83229 -2.39476,-1.74563 -0.33422,-0.56021 -1.17988,-1.03608 -0.85393,-1.88436 0.0986,-0.97717 -0.0649,-2.17512 0.92399,-2.71453 0.28942,-0.37816 0.70955,-0.67757 1.13947,-0.81186 -0.20486,0.73791 -1.29293,1.14335 -1.08024,2.09446 -0.27459,1.84749 1.65805,3.4564 3.33385,3.33758 0.69582,-0.57717 1.91149,-0.54067 1.98084,-1.69232 0.0782,-1.00665 0.23952,-1.9955 0.6011,-2.89373 0.0438,-0.74406 0.41249,-1.29532 0.88012,-1.83977 0.24676,-0.68535 0.73564,-0.95397 1.48716,-0.92375 z m -5.98207,1.87672 c 0.0543,0.62897 -0.52726,-0.33538 0,0 z m 0.0771,0.38849 c 0.35599,0.50313 1.13909,0.58917 0.98468,1.36859 0.53313,0.67874 -0.32203,2.55675 -0.96709,1.60397 -1.24082,-0.417 0.19541,-1.24361 0.24647,-1.49723 -0.43026,-0.4523 -0.32878,-1.25036 -0.26406,-1.47533 z m 24.17951,4.44248 c 0.0243,0.64868 0.0636,1.30822 -0.0768,1.94745 -0.15044,-0.72337 -0.83522,-0.7605 -0.27801,-1.41044 0.0792,-0.17068 0.19373,-0.53032 0.35473,-0.53701 z m -0.83226,1.15601 c -0.13149,-0.11742 0.24364,-0.17476 0,0 z m -1.32669,1.09338 c 0.54178,0.20244 1.10548,0.36911 1.69126,0.29525 -0.55206,0.55367 -1.39142,0.16711 -1.69126,-0.29525 z"
         style="fill:#760e10" />
      <path
         inkscape:connector-curvature="0"
         id="path24"
         d="m 183.35659,107.40441 c -0.5981,1.65502 -0.65291,3.49976 -0.7675,5.25889 0.16065,1.2043 -0.81194,2.02224 -1.08599,3.13196 -1.19675,-0.0368 -1.66161,-0.17273 -2.59707,0.14112 -1.19961,0.0399 -2.53888,0.56849 -3.62147,-0.24141 -0.52648,1.04366 0.18337,1.17977 0.50252,2.27367 0.33962,0.68793 1.81126,1.26269 2.07731,0.30018 0.74196,0.0153 1.77406,0.32681 2.23566,-0.34839 0.72736,0.0101 1.20418,-0.15971 0.85266,0.73056 -0.30346,2.59229 -1.52849,4.9569 -2.71073,7.24576 -0.38329,0.29495 -0.64483,1.12872 -0.99167,1.60996 -0.50735,0.63508 -0.52331,1.61331 -1.37067,1.96576 0.009,0.8908 -1.10567,1.36087 -1.26271,2.20597 -0.85393,0.21733 -0.75795,1.27797 -1.83012,1.39579 -0.6681,0.51493 -1.55789,0.93626 -1.98554,1.68493 0.38147,0.93254 1.50734,0.42304 2.29298,0.32978 0.8282,-0.3814 1.94125,-0.80176 2.23184,-1.75254 0.71005,-0.26834 1.22218,-0.94811 1.74013,-1.55994 0.24036,-0.57843 0.97078,-0.84584 0.88474,-1.5312 0.82108,-0.4553 1.22615,-1.39064 1.48188,-2.25784 0.61187,-0.85697 0.20464,-2.54969 1.48363,-2.81138 0.42484,1.68652 0.50598,3.45352 1.07719,5.10476 0.66157,0.35005 1.3475,1.30072 2.0463,1.46239 0.65632,-0.16725 1.40179,0.60007 1.84719,0.0335 1.66744,-0.65079 3.00062,-2.05003 3.89245,-3.57501 -0.13324,-1.42927 -0.57418,-1.45983 -1.30541,-0.31684 -0.92381,0.93443 -1.88262,2.11289 -3.15895,2.46938 -1.08724,-0.052 -1.38589,-1.48699 -1.19923,-2.38868 -0.33111,-0.77487 -0.4878,-1.80896 -0.2407,-2.60376 -0.0837,-0.88634 0.76817,-1.48555 0.57078,-2.35741 0.5732,-0.42589 -0.11697,-1.34709 0.20622,-1.99638 -0.022,-0.5899 0.69425,-1.32837 -0.14252,-1.56633 -0.10254,-0.74035 0.52631,-0.72013 0.92481,-1.10885 0.78689,-0.39124 1.80971,-0.18444 2.47315,-0.77514 0.84733,0.29831 2.39595,-0.94144 1.0771,-1.34595 -0.86172,-0.7522 -2.08484,-0.25725 -3.12374,-0.39822 0.32922,0.69437 -0.75522,-0.0596 -0.81699,-0.57078 0.18447,-0.73467 0.53865,-1.48199 0.46508,-2.29127 -0.20056,-1.02906 0.34305,-2.15335 0.40189,-3.08552 -0.91796,-0.96849 1.21589,-1.86835 -0.21336,-2.27456 -0.60984,-0.25187 -1.90239,-0.60159 -2.34114,-0.18703 z"
         style="fill:#760e10" />
      <path
         inkscape:connector-curvature="0"
         id="path26"
         d="m 197.29351,117.23386 c -1.06563,0.0802 -2.12784,0.44376 -3.10733,0.90652 0.13026,0.53146 -0.69917,0.38474 -0.93854,0.85864 -0.46921,0.49109 -0.87811,1.04149 -1.22323,1.62617 -0.38083,-0.91049 -1.79983,-0.45996 -1.69922,0.52488 -0.55344,0.79263 1.22962,1.0183 0.47665,1.75704 -0.57448,1.07943 0.5448,1.8716 0.46491,2.94424 0.91928,-0.52503 0.20068,1.2362 0.97232,1.49033 0.48326,0.70046 1.1826,1.16689 1.7905,1.68738 0.39718,0.66486 1.36067,1.39807 2.23672,1.05503 0.9913,0.2324 1.98348,0.44535 2.99842,0.0786 0.90638,0.0597 1.89839,-0.9207 2.41676,-0.89315 0.28031,-0.52108 1.29983,-0.74272 1.92947,-0.97 0.59072,-0.52152 1.22689,-1.14145 1.56879,-1.76692 0.28439,-0.99803 -0.68083,-1.56656 -1.25771,-0.68165 -0.72772,0.85157 -1.80462,1.12055 -2.84552,0.86288 -0.15167,0.58617 -1.26275,0.83932 -1.96152,0.81993 -0.37216,-1.15653 -0.40086,0.375 -1.19262,0.0925 -0.5388,0.15824 -1.01603,-0.004 -1.26932,-0.39695 -0.59229,-0.4279 -1.61405,-1.10454 -1.30312,-1.6793 -0.0898,-0.35564 -0.73055,-1.88927 -0.13829,-1.3932 0.48631,0.39329 1.1889,-0.453 1.93865,-0.20058 0.72149,0.011 1.27463,0.35277 2.09138,0.14323 0.7696,0.009 1.05879,-0.71612 1.781,-0.82628 0.92691,-0.68284 0.61537,-1.57312 0.72556,-2.21195 0.52491,-0.76902 -0.59671,-1.64296 -0.62597,-2.46314 -0.63857,-0.86268 -1.69245,-1.31592 -2.69103,-1.32668 -0.32791,-0.12863 -0.78185,-0.0681 -1.13771,-0.0377 z m 0.84245,2.7695 c 0.79491,-0.0267 1.83185,-0.0529 2.33702,0.67567 -0.58459,1.21441 -2.17663,1.43775 -3.40715,1.70604 -0.52085,-0.0621 -1.04245,-0.20424 -1.57444,-0.21536 0.15198,-0.81514 0.81415,-1.47948 1.37244,-2.02945 0.4139,-0.1107 0.84559,-0.13487 1.27213,-0.1369 z m -2.82756,2.16036 c -0.0423,0.0219 -0.0107,-0.0281 0,0 z"
         style="fill:#760e10" />
      <path
         inkscape:connector-curvature="0"
         id="path28"
         d="m 214.06573,118.73017 c -1.07673,0.28242 -2.15767,0.58592 -3.0183,1.32281 -1.03958,0.37116 -0.95529,1.6555 -1.72411,2.336 -0.88844,1.30624 -2.07793,2.3926 -2.89468,3.73513 -0.92637,0.77656 -1.64399,1.6845 -2.5309,2.50343 1.00475,0.0751 1.94477,-0.10413 2.87191,-0.44552 1.10405,-0.47014 1.44444,-1.84634 2.37184,-2.47249 0.5617,-0.17618 0.61931,-1.16008 1.0983,-1.60611 0.35883,-0.57218 0.92581,-1.09868 1.33655,-1.46146 0.49815,-0.97349 1.47197,-1.66654 2.45526,-2.09877 0.84039,1.34953 0.1805,2.97459 0.34697,4.4731 -0.21166,0.43117 0.15041,1.05243 -0.0958,1.63319 -0.35759,1.62868 -0.18235,3.3056 0.0356,4.94006 0.75075,0.48311 1.4892,0.98995 2.14523,1.59872 0.31602,-0.79438 0.16252,-1.73518 0.70557,-2.41092 -0.31704,-0.99656 -0.13544,-2.07338 -0.22874,-3.03626 0.11804,-0.89861 0.28747,-1.60387 0.53635,-2.49813 0.31136,-1.10485 0.0527,-2.47861 1.03105,-3.2675 0.33469,0.97833 0.79674,2.00587 1.4414,2.77232 0.0112,0.95939 1.69453,0.94278 1.36962,1.98124 0.008,1.11949 1.09207,1.62531 1.74792,2.37536 0.25677,-0.39233 1.11084,-0.10357 1.71801,-0.1763 0.95263,0.38678 0.94205,0.14062 1.57938,-0.44281 0.92836,-0.6731 -0.40729,-1.71375 -1.18316,-1.2817 -0.43138,-0.32994 -1.1257,-0.0707 -1.40126,-0.74518 -0.45096,-0.54223 -0.31266,-1.33705 -0.88928,-1.76409 0.47663,-0.67114 0.45287,-1.2184 -0.23788,-1.63251 -0.24765,-0.85765 -1.71737,-0.61635 -1.28564,-1.08098 0.25432,-0.85398 -0.48498,-1.30088 -1.04107,-1.8955 -1.02604,-0.69006 -2.80404,-0.0688 -3.30767,1.01672 -0.39991,0.53464 -0.11125,-1.33224 -0.93015,-1.48853 -0.4077,-0.62579 -1.36079,-0.73799 -2.02235,-0.88332 z"
         style="fill:#760e10" />
      <path
         inkscape:connector-curvature="0"
         id="path30"
         d="m 235.37825,117.23386 c -1.06567,0.0801 -2.12759,0.44405 -3.10734,0.90615 0.13069,0.53194 -0.69907,0.38495 -0.93854,0.85901 -0.46919,0.49118 -0.87763,1.04178 -1.22322,1.62617 -0.38084,-0.91049 -1.79983,-0.45996 -1.69922,0.52488 -0.55343,0.79263 1.22962,1.0183 0.47666,1.75704 -0.57781,1.08107 0.54605,1.87166 0.46315,2.94459 0.92164,-0.5269 0.20207,1.23513 0.97407,1.48998 0.48335,0.70031 1.18296,1.16705 1.7905,1.68738 0.39706,0.66473 1.36069,1.39811 2.23672,1.05503 0.9921,0.23525 1.98316,0.44345 2.99843,0.0786 0.90663,0.0595 1.89861,-0.92082 2.41755,-0.89322 0.31052,-0.6 1.45768,-0.70037 2.06638,-1.0861 0.51761,-0.49401 1.13144,-1.0708 1.43109,-1.65075 0.28321,-1.01144 -0.6816,-1.55194 -1.26054,-0.67918 -0.72033,0.85954 -1.80597,1.11354 -2.84269,0.86041 -0.15144,0.58658 -1.26276,0.83908 -1.96154,0.81993 -0.37343,-1.15802 -0.39944,0.37454 -1.19225,0.0925 -0.5389,0.15813 -1.01636,-0.004 -1.26969,-0.39695 -0.59174,-0.42875 -1.61428,-1.10417 -1.3031,-1.6793 -0.0933,-0.36136 -0.72094,-1.87222 -0.1383,-1.3932 0.48638,0.39319 1.18913,-0.453 1.93901,-0.20058 0.72138,0.0111 1.27466,0.35267 2.09138,0.14323 0.76943,0.009 1.05869,-0.71673 1.78134,-0.82628 0.92602,-0.68342 0.61471,-1.57307 0.72486,-2.21195 0.52491,-0.76902 -0.59671,-1.64296 -0.62597,-2.46314 -0.63829,-0.86299 -1.69254,-1.31584 -2.69102,-1.32668 -0.32792,-0.12863 -0.78186,-0.0681 -1.13772,-0.0377 z m 0.84247,2.7695 c 0.79393,-0.0269 1.83213,-0.0545 2.33736,0.67531 -0.60702,1.23154 -2.24128,1.46748 -3.50394,1.71344 -0.48541,-0.11368 -0.97942,-0.19878 -1.478,-0.2224 0.18964,-0.809 0.81422,-1.60866 1.47483,-2.05514 0.38287,-0.088 0.77801,-0.10979 1.16975,-0.11121 z m -2.82758,2.16036 c -0.0423,0.0219 -0.0108,-0.0281 0,0 z"
         style="fill:#760e10" />
      <path
         inkscape:connector-curvature="0"
         id="path32"
         d="m 250.64009,115.64782 c -0.94435,0.39513 -1.8912,0.64437 -2.32505,1.59906 -0.84863,-0.28739 -1.16754,0.94818 -1.42522,1.57654 -0.0177,0.80093 -0.81632,1.17061 -0.97232,1.87742 -0.66192,0.63871 -0.58855,1.86491 -0.55601,2.79415 0.0771,2.26399 0.89826,4.62892 2.53725,6.19391 0.8655,0.63832 0.45164,1.07608 1.54262,1.2328 0.47373,0.005 1.23231,0.39496 2.02255,0.4127 1.15313,0.10061 2.48274,0.12076 3.63977,-0.32446 0.34219,-0.6958 1.11716,-0.82577 1.30074,-1.75663 0.21188,-0.60378 0.80069,-0.82497 0.80999,-1.52032 0.59843,-0.41499 0.84324,-1.56703 0.79158,-2.19699 -0.30279,-0.49937 -0.51886,-0.99736 -0.76695,-1.52442 -0.26581,-0.61944 -0.0511,-1.46027 -0.71999,-1.77923 -0.99972,-0.6146 -2.21713,-2.05519 -3.48388,-1.22604 -0.64611,0.50822 -1.41776,-0.021 -2.15368,0.33325 -0.70487,0.13835 -0.85397,0.91208 -1.25419,1.33689 -0.19388,0.62353 -0.50317,1.5533 -0.0768,2.01149 -0.43526,0.96683 0.23022,1.41473 0.783,2.04564 0.80476,1.11587 2.1973,1.62509 3.52566,1.09624 0.55252,-0.31255 0.79932,-1.04618 1.18848,-1.70469 0.77493,-0.94497 -0.2797,-2.50282 -0.91856,-1.16745 -0.16954,0.8882 -1.16079,1.08753 -1.85944,1.08233 -0.99856,0.18979 -0.9194,-1.99126 0.19015,-1.68395 1.07687,-0.077 0.93583,-0.56915 1.72391,-0.54929 0.67129,-0.0187 1.49048,0.0856 1.48716,0.92728 0.48271,1.13378 -0.0149,2.32377 -0.88681,3.10592 -0.50581,0.40082 -0.74786,0.97418 -1.2746,1.13948 -1.32728,0.28532 -2.82835,0.10844 -3.96951,-0.55109 -0.44647,-0.58407 -1.27653,-0.8691 -1.36434,-1.65783 -0.68284,-0.88067 -0.48976,-2.27135 -0.12387,-3.21503 -0.27996,-1.02742 0.97213,-1.22163 1.47679,-2.0601 0.29788,-1.02822 0.95252,-0.89192 1.94002,-1.22608 0.76428,-0.045 1.68001,0.49664 1.95752,-0.25439 0.13653,-0.72023 0.80466,-1.51623 0.0816,-2.10153 -0.43121,-0.63967 -0.51617,-1.45458 -1.26466,-1.79799 -0.33244,-0.41803 -1.15326,-0.43934 -1.60303,-0.46759 z"
         style="fill:#760e10" />
      <path
         inkscape:connector-curvature="0"
         id="path34"
         d="m 279.90042,100.7956 c -0.83301,-0.46034 -0.98672,0.80198 -1.69655,1.07366 -0.92782,0.68819 -0.92804,2.09838 -1.48509,3.08997 -0.87101,2.00822 -1.39939,4.16769 -1.60041,6.37634 -0.0268,0.98902 -0.12079,1.99727 -0.29487,2.93726 0.18428,1.23 0.32283,2.47113 0.28113,3.71693 -1.09473,0.29108 -1.83252,1.22141 -2.44495,2.06313 -0.87526,0.37909 -1.71495,0.91106 -2.07177,1.83599 -0.46696,0.42395 -0.56263,1.07621 -0.97829,1.5688 -0.72289,1.78522 -0.87306,3.94369 -0.0711,5.72729 0.6035,0.85774 1.21972,1.69672 1.89109,2.47613 0.53587,0.41557 1.17247,0.82799 1.72933,0.678 0.46065,-0.36322 1.11123,-0.21474 1.44631,-0.62747 0.46296,-0.11548 0.50161,-0.7405 0.99627,-1.03106 0.76354,-0.7 1.20475,-1.6682 1.81691,-2.48975 1.21581,2.08062 2.40297,4.38863 4.50333,5.71426 0.70087,-0.326 2.32024,1.27822 2.34499,0.48091 0.0183,-1.02127 -1.05244,-1.3624 -1.43249,-2.19926 -1.09927,-0.5836 -1.52964,-1.82332 -2.37924,-2.64775 -0.16728,-0.83442 -0.84643,-1.38854 -0.95788,-2.22545 -0.12835,-0.32143 -0.67721,-1.13327 0.0489,-0.79358 0.21516,-0.57677 -0.39716,-2.08062 0.20607,-2.97146 0.4776,-1.84427 0.9785,-3.67657 1.52431,-5.49785 -0.0196,-1.07019 0.59503,-2.02581 0.49691,-3.12142 0.6455,-0.37758 -0.33857,-1.36951 0.40679,-1.80564 0.44731,-0.5324 -0.11942,-1.29528 0.0359,-1.97982 -0.2369,-1.55444 0.63227,-3.13334 0.005,-4.6237 0.47206,-0.87753 0.46557,-1.43693 -0.0706,-1.94052 -0.36664,-1.07748 -0.23403,-2.31487 -1.12448,-3.15966 -0.33174,-0.40775 -0.7453,-0.73679 -1.1261,-1.09584 0,0.1572 0,0.31437 0,0.47156 z m -0.16258,2.2258 c 0.61439,1.17848 1.15123,2.89534 0.50005,4.22464 0.38271,0.62157 0.62846,1.336 0.30969,2.03333 -0.82897,-0.37267 -0.16858,1.71657 0.13218,2.22958 0.0395,0.98111 0.11569,2.10752 -0.48163,2.88256 0.2373,2.14236 -0.42159,4.27957 -0.94104,6.33185 -0.27864,0.21673 -0.16751,1.20094 -0.55913,1.0508 -0.0381,0.904 -0.32177,-0.38134 -0.11472,-0.58416 0.0399,-0.93722 0.0695,-1.97332 -0.50253,-2.76493 1.3178,0.77346 0.44817,-0.73735 0.341,-1.40271 0.54455,-0.71583 -0.20086,-1.45906 -0.0392,-2.46972 -0.20329,0.11771 -0.96378,0.63858 -0.31592,-0.40699 0.7564,-0.81764 -0.0168,-2.00522 -0.0531,-3.00153 -0.0446,-0.938 -0.0427,-1.98041 0.25619,-2.77619 0.48736,-0.82 0.86842,-1.80122 0.93382,-2.84945 0.055,-0.6245 0.44517,-1.2655 0.31385,-1.92765 0.17764,-0.31554 -0.11918,-1.47498 0.22049,-0.56943 z m -4.1641,19.12578 c -0.1805,0.8649 1.01088,1.80171 0.70513,2.40948 -0.5219,0.46158 0.594,1.24746 -0.12696,1.7374 -0.27661,0.60842 -1.23774,1.14487 -0.88715,1.72926 -0.69793,0.65495 -1.46395,1.07821 -1.94978,1.93089 -0.47845,0.0859 -1.03791,0.86467 -1.33174,0.0868 -1.19893,-1.22176 -0.78802,-3.2215 -0.17648,-4.65468 0.31207,-0.9268 1.64984,-0.79377 1.56896,-1.847 0.74981,-0.54441 1.06494,-1.76494 2.19802,-1.39214 z"
         style="fill:#760e10" />
      <path
         inkscape:connector-curvature="0"
         id="path36"
         d="m 292.50572,117.23386 c -1.06563,0.0803 -2.12793,0.44349 -3.10733,0.90652 0.13018,0.53135 -0.69917,0.38475 -0.93854,0.85864 -0.46921,0.49109 -0.87813,1.0415 -1.22324,1.62617 -0.38125,-0.91029 -1.80003,-0.46017 -1.69956,0.52488 -0.55372,0.79268 1.23031,1.01801 0.477,1.75704 -0.57952,1.08181 0.54799,1.87023 0.46492,2.94424 0.91947,-0.52471 0.20045,1.23738 0.97301,1.49102 0.48293,0.70045 1.18237,1.16635 1.7898,1.68669 0.3972,0.66493 1.36059,1.39818 2.23672,1.05503 0.98879,0.23251 1.98496,0.44492 2.99842,0.0786 0.90658,0.0597 1.89837,-0.92077 2.41721,-0.89322 0.28425,-0.52104 1.29437,-0.7427 1.92936,-0.97028 0.5903,-0.52164 1.22684,-1.14164 1.56845,-1.76657 0.28467,-1.00435 -0.68497,-1.56329 -1.26263,-0.67778 -0.72562,0.85066 -1.80243,1.11493 -2.84059,0.85901 -0.15186,0.58633 -1.26311,0.83945 -1.96224,0.81993 -0.374,-1.1563 -0.39961,0.37479 -1.19191,0.0925 -0.53864,0.15801 -1.01642,-0.004 -1.26932,-0.39695 -0.59229,-0.42808 -1.61407,-1.10447 -1.30312,-1.6793 -0.0897,-0.35546 -0.73009,-1.88814 -0.139,-1.39354 0.48646,0.39407 1.18935,-0.45266 1.93936,-0.20024 0.72147,0.011 1.27462,0.35279 2.09139,0.14323 0.76938,0.009 1.059,-0.7165 1.78134,-0.82628 0.92609,-0.68375 0.61557,-1.57323 0.72489,-2.21123 0.52587,-0.76944 -0.59687,-1.64328 -0.626,-2.46386 -0.63822,-0.86308 -1.69256,-1.31579 -2.69103,-1.32668 -0.3278,-0.12861 -0.78162,-0.0681 -1.13736,-0.0377 z m 0.84211,2.7695 c 0.79447,-0.0276 1.83293,-0.0518 2.33737,0.67567 -0.60723,1.23078 -2.24028,1.46823 -3.50394,1.71308 -0.48518,-0.11366 -0.97895,-0.19863 -1.47731,-0.2224 0.18891,-0.80912 0.81357,-1.60873 1.47414,-2.05514 0.38286,-0.088 0.77801,-0.10979 1.16974,-0.11121 z m -2.82687,2.16036 c -0.0437,0.0227 -0.0112,-0.0287 0,0 z"
         style="fill:#760e10" />
      <path
         inkscape:connector-curvature="0"
         id="path38"
         d="m 319.71584,105.82962 c -1.10241,0.26403 -2.52083,0.52386 -0.58046,0.8226 0.85358,0.17686 1.59439,1.0163 1.92546,1.75898 0.3156,1.3264 0.32147,2.70256 -0.088,4.01245 0.3489,0.94273 0.17523,2.09407 0.4262,3.10278 0.0297,0.79851 0.0563,1.29358 0.0837,2.13218 -0.41659,1.17425 -0.59964,2.43354 -0.69606,3.67391 0.38902,0.71131 -0.12606,1.97932 -0.57173,1.18687 0.0705,1.85066 -0.54167,3.63889 -1.05654,5.4061 -1.74158,0.19763 0.11027,0.40501 -0.52188,1.31085 -0.47537,1.2722 -1.87808,2.0546 -3.18827,1.55297 -0.72107,-0.61133 -1.62247,-0.40726 -1.76129,-1.0434 0.85156,0.21217 1.78729,0.78231 2.65206,0.10956 0.97319,-0.16553 1.05055,-1.54171 1.62746,-1.84412 -0.23932,-0.98051 0.17065,-2.09316 -0.69641,-2.8434 -0.35171,-1.37981 -2.03778,-1.59689 -3.21925,-1.85737 -1.81368,0.26198 -3.16198,1.82279 -3.44305,3.59156 -0.18436,1.03863 0.0859,1.30859 0.6021,2.33318 -0.92293,0.58409 -0.0507,0.52901 0.19215,1.20419 0.34626,0.90069 1.43521,1.01581 1.85702,1.89044 0.78312,0.0958 1.46046,0.71574 2.35628,0.68062 0.85587,0.14009 1.68143,0.45849 2.42824,-0.15275 1.06432,-0.5018 2.595,-0.6962 2.88282,-2.03895 0.43255,-1.02366 0.7536,-2.0558 1.02229,-3.13514 0.28567,-0.58121 0.92888,-0.92306 0.92093,-1.56387 0.18833,-0.90436 0.82636,-1.79978 0.74751,-2.85112 0.008,-0.69477 0.41855,-1.27172 0.31524,-2.00414 0.2976,-1.27334 0.38722,-2.5993 0.0319,-3.89493 -0.30783,-0.90914 -0.0901,-1.77061 0.0518,-2.64696 -0.0308,-1.15949 -0.56271,-2.37689 -0.4403,-3.46352 0.0762,0.28453 0.0516,1.14083 0.35754,1.88621 0.29464,0.47944 0.0648,2.09147 0.61268,1.63969 0.29383,-0.48813 0.81154,1.15542 0.65066,1.81041 0.70998,0.373 0.42493,1.66085 1.1282,2.27631 0.85185,0.86406 -0.19471,1.11295 0.1035,2.07748 0.0638,1.00627 0.76351,1.83908 0.89031,2.86346 0.39217,0.8389 0.26974,2.19044 0.57396,3.22171 -0.41335,0.99625 0.075,1.97941 0.25512,2.96693 0.29872,-0.0319 -0.44477,1.03057 0.46276,1.86404 0.20716,0.64336 1.20798,0.7987 1.86898,0.88716 0.52855,0.0934 1.78585,0.67237 1.51392,-0.32129 -0.29602,-0.79192 -0.92727,-1.66086 -0.72038,-2.64493 -0.0205,-0.89778 0.28952,-1.01283 0.52857,-2.00728 0.35058,-0.87645 1.04768,-1.63966 0.65925,-2.4188 0.45863,-0.39266 -0.0775,-0.95244 -0.0117,-1.43387 0.16362,-0.94309 0.71318,-1.75295 0.88612,-2.69349 0.44256,-0.7633 1.19291,-1.21545 1.19771,-2.14459 0.73381,-0.89798 0.18332,-1.66445 0.65393,-2.58726 -0.0572,-0.70862 1.06204,-0.99283 0.73696,-1.71437 0.21571,-0.49525 0.9251,-0.58732 0.51343,-1.15074 0.31621,-1.01578 0.81168,-2.27276 1.34218,-3.0088 0.0422,0.7234 0.26335,1.41794 0.0548,2.14416 -0.0799,0.8919 0.30028,1.81472 -0.17209,2.62699 0.25647,1.75112 -0.084,3.45276 -0.11401,5.19449 0.29809,1.19181 0.50956,2.39144 0.37933,3.63168 0.6103,2.00039 -0.0702,4.33982 1.24189,6.1179 0.95973,1.44716 2.76065,1.86709 4.26582,2.43167 0.73823,0.0825 1.29525,-0.32555 1.65782,-0.88135 0.92366,-0.39748 0.47541,-1.49848 0.59228,-2.12323 -0.34493,-0.71161 0.0711,-1.55482 -0.54813,-2.1954 0.0139,-1.09277 -0.19095,-1.66765 -1.53271,-1.45071 -1.03197,-0.35451 -1.35445,0.90361 -1.6258,1.52869 -0.47635,-0.73971 -1.06611,-1.34915 -1.2454,-2.13819 -0.49808,-0.80247 -0.17913,-1.72899 -0.5546,-2.60376 -0.0619,-0.79402 -0.44838,-1.411 -0.20341,-2.1885 -0.24678,-0.75688 -0.0582,-1.60166 0.3879,-2.04813 0.005,-0.56603 -0.34335,-1.12665 -0.0937,-1.79013 0.38385,-0.90674 0.8118,-1.76988 0.52049,-2.78583 0.19224,-0.84764 -1.21532,-1.87536 -0.70032,-2.41006 0.55051,-0.53058 0.735,-1.16734 0.83693,-2.13785 0.45642,-0.67567 0.21841,-1.27735 0.65973,-1.87635 0.67125,-0.80432 -1.10145,-1.33 -1.72222,-1.72469 -0.96246,-0.20956 -1.10002,0.21857 -1.78519,0.0617 -0.19865,0.2712 -0.40286,1.15898 -0.93823,1.51272 -0.40533,1.03981 -1.57085,2.00802 -1.13279,3.18439 -0.62276,0.209 -0.70521,1.16388 -1.08528,1.83872 -0.76347,1.53453 -1.25294,3.15005 -1.86511,4.74897 0.59422,0.2931 -0.40235,0.74517 -0.43988,1.22992 -0.84039,2.17489 -1.7262,4.35891 -2.31202,6.61584 0.004,-1.04 0.48005,-2.31561 -0.55215,-3.08269 -0.42362,-0.93433 -0.0995,-1.97123 -0.79194,-2.82016 -0.2665,-1.25091 0.1592,-2.76399 -0.75714,-3.87557 -0.93486,-1.35742 -0.81658,-3.1489 -1.16439,-4.63553 -0.44303,-0.62299 -0.55553,-1.24559 -0.28053,-1.93563 -0.15827,-0.82718 -1.17539,-0.96314 -1.37492,-1.69302 -0.60716,-0.81521 -1.26771,-1.1806 -2.3425,-1.22652 -1.06394,-0.43737 -2.20159,0.42682 -3.16441,-0.34762 -0.30258,-0.26907 -0.10463,0.21078 -0.16195,0.30551 z m 18.19358,3.94487 c -0.0103,0.0853 -0.0335,0.17404 0,0 z m -22.99323,15.9748 c 0.24531,0.3395 0.74991,0.97919 -0.0842,0.60285 -0.43959,-0.0874 -0.84148,0.30192 -1.35732,0.42854 -0.52898,0.20721 -0.98474,1.0067 -0.68747,1.47208 0.43016,1.66009 -0.70073,0.18448 -0.37955,-0.58327 0.47052,-0.48354 0.38806,-1.51631 1.05522,-1.72489 0.50453,-0.12638 0.92319,-0.49295 1.45338,-0.19531 z m 0.47436,2.59953 c -1.54483,1.1387 0.13835,-1.74911 0.10897,-0.62332 -0.0364,0.20778 -0.0726,0.41555 -0.10897,0.62332 z m 26.50561,0.43427 c 0.26153,0.65143 0.97915,0.87181 0.98429,1.65958 1.35108,1.01715 -0.77943,0.23546 -0.85053,-0.66455 -0.005,-0.30063 -0.39047,-0.76148 -0.13376,-0.99503 z"
         style="fill:#760e10" />
      <path
         inkscape:connector-curvature="0"
         id="path40"
         d="m 354.87238,115.64782 c -0.94439,0.39505 -1.8914,0.64415 -2.32505,1.59906 -0.84829,-0.28743 -1.16747,0.94759 -1.42486,1.57584 -0.018,0.80108 -0.81626,1.17123 -0.97269,1.87812 -0.66218,0.63899 -0.58842,1.86494 -0.556,2.79415 0.0773,2.2641 0.89812,4.62964 2.53794,6.19425 0.93559,0.46567 0.30697,1.21512 1.4115,1.10815 0.51365,0.2772 1.22877,0.37156 2.06534,0.53701 1.06103,0.0566 2.27048,0.15248 3.35719,-0.20586 0.64885,-0.42616 1.2463,-0.84785 1.56502,-1.6641 0.21337,-0.69519 0.87217,-0.98352 0.91592,-1.73145 0.59778,-0.41504 0.84288,-1.56682 0.79124,-2.19664 -0.31811,-0.58327 -0.62747,-1.1206 -0.83276,-1.77251 -0.19197,-0.56227 -0.0462,-1.26178 -0.6535,-1.53115 -0.99978,-0.61474 -2.21667,-2.05508 -3.48386,-1.22675 -0.64644,0.50895 -1.41776,-0.0208 -2.15403,0.33362 -0.70512,0.13871 -0.85469,0.91247 -1.25489,1.33795 -0.19313,0.62336 -0.50293,1.5526 -0.0761,2.01043 -0.43526,0.96683 0.23022,1.41473 0.783,2.04564 0.80491,1.11409 2.19734,1.6261 3.52566,1.09624 0.55251,-0.31255 0.79933,-1.04618 1.18847,-1.70469 0.77531,-0.9453 -0.28036,-2.50278 -0.91918,-1.1674 -0.16902,0.88838 -1.1604,1.08735 -1.85881,1.08228 -0.99856,0.18979 -0.91942,-1.99126 0.19016,-1.68395 1.07794,-0.0765 0.93534,-0.57075 1.7239,-0.54929 0.67238,-0.02 1.48288,0.0937 1.48716,0.92728 0.47962,1.13564 -0.0164,2.33056 -0.8935,3.11296 -0.512,0.39664 -0.73977,0.97378 -1.27284,1.13349 -1.32562,0.284 -2.82514,0.1065 -3.96458,-0.55214 -0.44656,-0.58394 -1.27647,-0.86915 -1.36434,-1.65783 -0.69427,-0.87917 -0.47178,-2.27327 -0.12422,-3.21466 -0.27984,-1.02801 0.97236,-1.22156 1.47703,-2.0606 0.29758,-1.02838 0.95292,-0.89158 1.94014,-1.22595 0.76424,-0.045 1.67985,0.49676 1.9576,-0.25472 0.13658,-0.72012 0.80447,-1.51599 0.0815,-2.1012 -0.43517,-0.63664 -0.51413,-1.45613 -1.26466,-1.79799 -0.33244,-0.41803 -1.15325,-0.43934 -1.60303,-0.46759 z"
         style="fill:#760e10" />
      <path
         inkscape:connector-curvature="0"
         id="path42"
         d="m 370.3267,99.709965 c -0.72365,0.339945 -0.97816,-0.151479 -1.34921,0.704515 -0.47528,0.22126 -0.94102,0.54074 -1.09056,0.80411 -1.45878,2.40533 -2.74824,5.18524 -2.90674,8.103 -0.29873,2.27232 0.18877,4.4434 -0.0701,6.72669 -0.13526,0.98477 0.13515,2.02164 0.14965,2.95339 0.28941,0.93972 0.87103,1.84019 1.11687,2.751 -0.30794,1.08825 1.15803,1.99765 0.45404,2.9633 -0.62297,1.30784 -1.28812,2.60323 -2.08937,3.81198 -0.41758,0.0424 -0.32303,0.87576 -0.80127,1.02159 -1.14525,1.24502 -2.33403,2.66149 -4.02933,3.12774 0.1278,0.90345 0.54998,1.26683 1.42501,1.09103 0.62442,0.50751 1.77081,-0.59841 1.80051,0.0542 0.28162,-0.26748 0.99126,-1.402 1.45628,-2.01717 0.82046,-0.97044 1.38867,-2.12559 2.13004,-3.16131 0.36689,-0.76838 1.14134,-1.38492 1.16904,-2.21313 0.21853,-0.78569 0.21299,0.12527 0.70768,0.29116 0.52399,0.55408 1.41958,1.37573 1.22571,2.37664 -0.14081,1.36936 0.37019,-0.82401 0.76046,0.19109 0.33809,0.65863 1.32859,0.96379 2.05971,1.19472 1.01742,0.23894 2.05683,0.0403 2.87577,-0.58909 0.64542,-0.17146 1.14089,-0.47909 1.47203,-1.09972 0.63843,-0.33451 1.25655,-1.01261 1.49489,-1.64972 0.0121,-0.99057 -0.92562,-1.54907 -1.30732,-0.46171 -0.60683,0.84872 -1.57276,1.10169 -2.30957,1.80247 -0.72067,0.32641 -1.55953,0.39421 -2.16278,-0.20224 -0.5869,-0.3275 -0.9311,-0.88091 -1.2743,-1.39366 -0.0385,-0.70758 -0.67416,-0.95621 -0.82591,-1.6617 -0.24475,-0.60201 -0.44868,-1.18791 -0.60846,-1.81478 0.58796,-0.26997 -0.49378,-1.21353 0.20411,-1.69056 0.63343,-0.31887 0.50864,-1.48996 0.8382,-2.22232 0.0971,-1.05693 1.23673,-1.5228 1.18457,-2.62766 0.43397,-1.37289 0.33364,-2.84754 0.75202,-4.22182 0.31717,-0.46898 0.76657,-1.65121 0.73286,-2.50344 0.34533,-0.83799 0.48601,-1.83862 0.35293,-2.65639 0.15685,-0.53981 0.42149,-1.63233 0.306,-2.41989 -0.60038,-0.6676 0.17372,-1.65963 -0.008,-2.27095 -0.46545,-0.39738 -0.70038,-1.02522 -1.32855,-1.28964 -0.19815,-0.9481 -0.95446,-2.141532 -2.00763,-2.047748 -0.24679,0.03023 -0.49756,-0.129673 -0.49936,0.245982 z m 0.91214,2.035425 c 0.30139,1.4738 0.29081,0.75279 0.84017,1.67494 0.5215,0.53184 0.23422,1.31091 0.0445,2.00636 -0.021,1.01642 -0.0112,2.01773 -0.28691,2.99594 -0.0126,1.07098 -0.0115,2.29774 -0.57419,3.1853 -0.80623,-0.0122 0.0157,1.61024 -0.4641,2.22856 -0.55265,0.65319 -0.0564,1.41937 -0.5135,2.08758 -0.18119,0.36949 0.0126,0.94012 -0.58136,0.94064 -0.25691,1.31673 -0.43197,2.72147 -0.91108,4.042 -0.50859,-0.63134 -0.37121,-1.5592 -0.24987,-2.25396 -0.22208,-0.68167 -0.13124,-1.60976 -0.0292,-2.06044 0.19015,-1.13985 0.69212,-1.54572 0.37596,-2.82084 -0.0697,-0.62052 -0.1918,-1.09042 -0.36187,-1.768 -1.27617,-1.50102 1.31926,0.44684 -0.0763,-1.26516 -0.45866,-0.8354 -0.39509,-1.96037 -0.20345,-2.88839 0.35495,-1.34976 1.31917,-2.35498 1.71237,-3.66757 0.35985,-0.59058 0.36882,-1.39579 0.63238,-1.95414 0.48522,0.1113 0.077,-1.13828 0.64647,-0.48282 z"
         style="fill:#760e10" />
      <path
         inkscape:connector-curvature="0"
         id="path44"
         d="m 386.67276,110.89849 c -0.48647,0.94265 -0.79795,2.12299 -0.58415,3.14041 0.43197,1.11345 1.53584,0.64432 2.44645,0.63062 0.93234,-0.52768 0.97083,-1.90956 0.83456,-2.91062 0.13495,-0.73253 -1.13482,-0.94393 -2.00772,-1.0152 -0.24293,0.0421 -0.64158,-0.24725 -0.68914,0.15479 z m -0.60105,5.03051 c -0.70929,0.63134 -0.55501,1.18659 -0.38955,2.12093 -0.10568,0.93421 -0.68661,1.70503 -0.86442,2.5973 -0.68639,1.26137 -0.75502,2.70742 -1.55918,3.91262 -0.29255,0.70735 -0.46586,1.41436 -1.02157,1.96963 -0.43221,0.58451 -0.7749,1.45229 -1.26371,2.02275 -0.60878,1.53322 -1.63572,3.01981 -2.93489,3.97092 -1.12415,0.38045 -0.77063,1.57033 0.3026,1.92468 0.7452,0.43207 1.88038,0.30656 1.94751,-0.74089 0.6259,-0.64857 0.93202,-1.3867 1.39564,-2.12339 0.0701,-0.71687 1.06814,-0.98597 0.67284,-1.73243 0.10165,-0.79144 1.10511,-0.98624 1.17325,-1.81197 0.0868,-0.56771 0.43041,-1.19461 0.77301,-1.6445 0.79787,-0.52252 1.21241,-1.71425 1.08202,-2.60642 0.38986,-0.52146 0.39365,-1.12386 0.57033,-1.7614 0.14479,1.56229 -0.12492,3.18596 0.36035,4.70393 0.38965,0.33093 0.0934,0.9963 0.34824,1.78417 0.34812,1.46599 1.03008,3.32799 2.73023,3.57292 1.37141,0.38704 2.86448,0.402 4.2053,-0.18124 0.35079,-0.66213 1.00149,-1.3265 1.63498,-1.86652 0.69478,-0.9005 1.49527,-1.96364 1.84538,-3.14287 -0.90186,-0.0458 -1.76748,-0.0625 -2.07943,0.93466 -0.86371,1.39627 -2.31908,2.4496 -3.89139,2.87578 -0.47526,-0.24429 -0.6722,-1.16799 -1.1926,-1.68598 -0.79899,-0.7547 -0.30125,-1.80136 -0.4824,-2.75691 0.0606,-0.4992 -0.0606,-1.086 -0.11387,-1.72476 -0.43313,-1.4766 -0.27454,-3.09121 -0.91026,-4.51834 0.69981,-0.74831 0.39652,-1.88956 0.007,-2.66921 -0.10519,-0.55638 -0.7114,-1.39429 -1.72574,-1.53326 -0.22713,0.24388 -0.44355,-0.24319 -0.61971,0.1098 z"
         style="fill:#760e10" />
      <path
         inkscape:connector-curvature="0"
         id="path46"
         d="m 404.48981,118.73017 c -1.07643,0.28257 -2.15739,0.58556 -3.01761,1.32281 -1.0404,0.37026 -0.95568,1.65555 -1.72469,2.33609 -0.88286,1.31058 -2.08035,2.3898 -2.89424,3.73454 -0.92681,0.77673 -1.64434,1.68595 -2.53287,2.50393 1.00534,0.0754 1.94598,-0.10393 2.87367,-0.44552 1.10308,-0.47292 1.4458,-1.84156 2.37185,-2.47249 0.55465,-0.1863 0.62973,-1.14515 1.0983,-1.60611 0.35983,-0.57294 0.9265,-1.09911 1.33691,-1.46252 0.49798,-0.97422 1.47311,-1.66362 2.45489,-2.09771 0.84023,1.34975 0.18018,2.9746 0.34697,4.4731 -0.22045,0.43323 0.16529,1.05252 -0.0961,1.63282 -0.35668,1.62884 -0.18318,3.30597 0.0363,4.94043 0.7508,0.48329 1.48799,0.99169 2.14558,1.59872 0.31473,-0.79464 0.16178,-1.73521 0.70452,-2.41092 -0.31718,-0.99626 -0.13516,-2.0733 -0.22875,-3.03626 0.11822,-0.89882 0.28765,-1.60376 0.53671,-2.49813 0.31234,-1.09993 0.0487,-2.49105 1.03105,-3.2675 0.33458,0.97831 0.79634,2.00614 1.4414,2.77232 0.0113,0.95944 1.69434,0.94242 1.36963,1.98124 0.008,1.11916 1.09144,1.62521 1.7472,2.37501 0.22926,-0.40171 1.00187,-0.0922 1.57443,-0.19073 0.84401,0.1682 1.13703,0.42839 1.54277,-0.27027 1.01341,-0.45522 0.23766,-1.70961 -0.64659,-1.49731 -0.64445,-0.0568 -1.35661,-0.0179 -1.75518,-0.6838 -0.45373,-0.5422 -0.31281,-1.33991 -0.89137,-1.76762 0.60984,-0.75928 0.29698,-1.29177 -0.37091,-1.76587 -0.35541,-0.96114 -1.6693,-0.27313 -1.18136,-1.17362 0.36596,-0.82766 -0.84415,-1.23736 -1.20668,-1.87354 -1.1985,-0.31123 -2.80389,0.24508 -3.18863,1.3844 -0.20237,-0.30871 -0.33352,-1.51296 -1.08684,-1.9279 -0.4781,-0.3055 -1.22603,-0.54018 -1.79034,-0.60759 z"
         style="fill:#760e10" />
      <path
         inkscape:connector-curvature="0"
         id="path48"
         d="m 430.32328,118.18365 c -1.17023,0.0277 -2.2523,1.08226 -3.23685,1.72576 -1.0367,0.78921 -2.32954,1.21632 -3.06005,2.36855 -1.60561,2.1841 -4.05395,3.49277 -6.3816,4.76318 -1.06004,-0.0462 -0.8493,1.79123 0.0237,1.48821 1.02609,0.0181 1.79278,-0.65484 2.75667,-0.82462 0.512,-0.47181 0.81639,-0.79484 1.16796,-1.20517 0.66201,-0.46729 -0.0866,0.67687 0.16751,1.03602 0.10743,1.14809 0.42105,2.3343 1.46578,2.99446 0.30819,0.66039 2.04034,1.41361 2.06876,0.52531 -0.16464,-1.05207 0.96898,-1.35452 1.38194,-2.26347 0.66515,-0.33325 1.08025,-0.89313 1.76885,-1.36769 0.34888,-0.82759 0.48575,-0.26661 0.65968,0.19443 0.38527,0.88194 0.83686,1.73319 1.31998,2.56505 0.72537,0.42283 1.4664,0.24038 2.32612,0.1946 0.36871,-0.80222 1.32551,-1.18436 1.82639,-1.93478 0.6162,-0.68394 1.29759,-1.35186 1.33548,-2.33595 -0.73606,-0.66235 -1.29161,0.0348 -1.7591,0.59656 -0.89612,0.84097 -1.83144,1.75727 -2.83716,2.3584 -0.15406,-1.51655 0.34237,-3.01964 0.13057,-4.55333 -0.0513,-0.7762 -0.24347,-1.53799 -0.52963,-2.25994 -1.1195,-0.24223 -0.15691,-0.55599 0.27402,-0.46847 0.38902,-1.00805 0.77297,-2.16816 -0.11701,-3.04698 -0.26824,-0.20897 -0.29456,-1.09864 -0.75206,-0.55013 z m -1.52976,4.47098 c -0.0696,1.03427 -0.48653,2.05799 -1.18028,2.83636 -0.39698,0.46457 -0.69346,1.18746 -1.33163,1.50581 -0.17413,0.75983 -1.27556,1.15366 -1.85419,1.5322 0.55373,-1.33699 1.50018,-2.36826 1.84469,-3.79882 0.49749,-0.30632 0.94653,-0.77672 1.23098,-1.20915 0.44609,-0.0735 0.65886,-0.97296 1.29043,-0.8664 z"
         style="fill:#760e10" />
    </g>
  </g>
</svg>
